<svg width="765" height="1009" viewBox="0 0 765 1009" fill="none" xmlns="http://www.w3.org/2000/svg">
<g opacity="0.15332">
<path fill-rule="evenodd" clip-rule="evenodd" d="M-2.69824 0.00488281C-6.73124 0.00488281 -10.0002 3.27388 -10.0002 7.30688C-10.0002 11.3389 -6.73124 14.6089 -2.69824 14.6089C1.33476 14.6089 4.60376 11.3389 4.60376 7.30688C4.60376 3.27388 1.33476 0.00488281 -2.69824 0.00488281Z" fill="black" fill-opacity="0.42"/>
<path fill-rule="evenodd" clip-rule="evenodd" d="M-2.69824 63.3711C-6.73124 63.3711 -10.0002 66.6401 -10.0002 70.6731C-10.0002 74.7051 -6.73124 77.9751 -2.69824 77.9751C1.33476 77.9751 4.60376 74.7051 4.60376 70.6731C4.60376 66.6401 1.33476 63.3711 -2.69824 63.3711Z" fill="black" fill-opacity="0.42"/>
<path fill-rule="evenodd" clip-rule="evenodd" d="M-2.69824 126.737C-6.73124 126.737 -10.0002 130.006 -10.0002 134.039C-10.0002 138.072 -6.73124 141.341 -2.69824 141.341C1.33476 141.341 4.60376 138.072 4.60376 134.039C4.60376 130.006 1.33476 126.737 -2.69824 126.737Z" fill="black" fill-opacity="0.42"/>
<path fill-rule="evenodd" clip-rule="evenodd" d="M-2.69824 190.104C-6.73124 190.104 -10.0002 193.374 -10.0002 197.406C-10.0002 201.439 -6.73124 204.708 -2.69824 204.708C1.33476 204.708 4.60376 201.439 4.60376 197.406C4.60376 193.374 1.33476 190.104 -2.69824 190.104Z" fill="black" fill-opacity="0.42"/>
<path fill-rule="evenodd" clip-rule="evenodd" d="M-2.69824 253.47C-6.73124 253.47 -10.0002 256.739 -10.0002 260.772C-10.0002 264.804 -6.73124 268.074 -2.69824 268.074C1.33476 268.074 4.60376 264.804 4.60376 260.772C4.60376 256.739 1.33476 253.47 -2.69824 253.47Z" fill="black" fill-opacity="0.42"/>
<path fill-rule="evenodd" clip-rule="evenodd" d="M-2.69824 316.836C-6.73124 316.836 -10.0002 320.106 -10.0002 324.138C-10.0002 328.171 -6.73124 331.44 -2.69824 331.44C1.33476 331.44 4.60376 328.171 4.60376 324.138C4.60376 320.106 1.33476 316.836 -2.69824 316.836Z" fill="black" fill-opacity="0.42"/>
<path fill-rule="evenodd" clip-rule="evenodd" d="M-2.69824 380.203C-6.73124 380.203 -10.0002 383.473 -10.0002 387.505C-10.0002 391.538 -6.73124 394.807 -2.69824 394.807C1.33476 394.807 4.60376 391.538 4.60376 387.505C4.60376 383.473 1.33476 380.203 -2.69824 380.203Z" fill="black" fill-opacity="0.42"/>
<path fill-rule="evenodd" clip-rule="evenodd" d="M-2.69824 443.569C-6.73124 443.569 -10.0002 446.839 -10.0002 450.871C-10.0002 454.904 -6.73124 458.173 -2.69824 458.173C1.33476 458.173 4.60376 454.904 4.60376 450.871C4.60376 446.839 1.33476 443.569 -2.69824 443.569Z" fill="black" fill-opacity="0.42"/>
<path fill-rule="evenodd" clip-rule="evenodd" d="M-2.69824 506.935C-6.73124 506.935 -10.0002 510.205 -10.0002 514.238C-10.0002 518.27 -6.73124 521.539 -2.69824 521.539C1.33476 521.539 4.60376 518.27 4.60376 514.238C4.60376 510.205 1.33476 506.935 -2.69824 506.935Z" fill="black" fill-opacity="0.42"/>
<path fill-rule="evenodd" clip-rule="evenodd" d="M-2.69824 570.301C-6.73124 570.301 -10.0002 573.571 -10.0002 577.604C-10.0002 581.636 -6.73124 584.905 -2.69824 584.905C1.33476 584.905 4.60376 581.636 4.60376 577.604C4.60376 573.571 1.33476 570.301 -2.69824 570.301Z" fill="black" fill-opacity="0.42"/>
<path fill-rule="evenodd" clip-rule="evenodd" d="M-2.69824 633.668C-6.73124 633.668 -10.0002 636.937 -10.0002 640.97C-10.0002 645.002 -6.73124 648.272 -2.69824 648.272C1.33476 648.272 4.60376 645.002 4.60376 640.97C4.60376 636.937 1.33476 633.668 -2.69824 633.668Z" fill="black" fill-opacity="0.42"/>
<path fill-rule="evenodd" clip-rule="evenodd" d="M-2.69824 697.035C-6.73124 697.035 -10.0002 700.304 -10.0002 704.337C-10.0002 708.369 -6.73124 711.639 -2.69824 711.639C1.33476 711.639 4.60376 708.369 4.60376 704.337C4.60376 700.304 1.33476 697.035 -2.69824 697.035Z" fill="black" fill-opacity="0.42"/>
<path fill-rule="evenodd" clip-rule="evenodd" d="M-2.69824 760.401C-6.73124 760.401 -10.0002 763.67 -10.0002 767.703C-10.0002 771.736 -6.73124 775.005 -2.69824 775.005C1.33476 775.005 4.60376 771.736 4.60376 767.703C4.60376 763.67 1.33476 760.401 -2.69824 760.401Z" fill="black" fill-opacity="0.42"/>
<path fill-rule="evenodd" clip-rule="evenodd" d="M-2.69824 823.767C-6.73124 823.767 -10.0002 827.037 -10.0002 831.069C-10.0002 835.102 -6.73124 838.371 -2.69824 838.371C1.33476 838.371 4.60376 835.102 4.60376 831.069C4.60376 827.037 1.33476 823.767 -2.69824 823.767Z" fill="black" fill-opacity="0.42"/>
<path fill-rule="evenodd" clip-rule="evenodd" d="M-2.69824 887.133C-6.73124 887.133 -10.0002 890.403 -10.0002 894.435C-10.0002 898.468 -6.73124 901.737 -2.69824 901.737C1.33476 901.737 4.60376 898.468 4.60376 894.435C4.60376 890.403 1.33476 887.133 -2.69824 887.133Z" fill="black" fill-opacity="0.42"/>
<path fill-rule="evenodd" clip-rule="evenodd" d="M-2.69824 940.5C-6.73124 940.5 -10.0002 943.77 -10.0002 947.802C-10.0002 951.835 -6.73124 955.104 -2.69824 955.104C1.33476 955.104 4.60376 951.835 4.60376 947.802C4.60376 943.77 1.33476 940.5 -2.69824 940.5Z" fill="black" fill-opacity="0.42"/>
<path fill-rule="evenodd" clip-rule="evenodd" d="M-2.69824 993.866C-6.73124 993.866 -10.0002 997.136 -10.0002 1001.17C-10.0002 1005.2 -6.73124 1008.47 -2.69824 1008.47C1.33476 1008.47 4.60376 1005.2 4.60376 1001.17C4.60376 997.136 1.33476 993.866 -2.69824 993.866Z" fill="black" fill-opacity="0.42"/>
<path fill-rule="evenodd" clip-rule="evenodd" d="M60.6685 0.00488281C56.6355 0.00488281 53.3665 3.27388 53.3665 7.30688C53.3665 11.3389 56.6355 14.6089 60.6685 14.6089C64.7015 14.6089 67.9705 11.3389 67.9705 7.30688C67.9705 3.27388 64.7015 0.00488281 60.6685 0.00488281Z" fill="black" fill-opacity="0.42"/>
<path fill-rule="evenodd" clip-rule="evenodd" d="M60.6685 63.3711C56.6355 63.3711 53.3665 66.6401 53.3665 70.6731C53.3665 74.7051 56.6355 77.9751 60.6685 77.9751C64.7015 77.9751 67.9705 74.7051 67.9705 70.6731C67.9705 66.6401 64.7015 63.3711 60.6685 63.3711Z" fill="black" fill-opacity="0.42"/>
<path fill-rule="evenodd" clip-rule="evenodd" d="M60.6685 126.737C56.6355 126.737 53.3665 130.006 53.3665 134.039C53.3665 138.072 56.6355 141.341 60.6685 141.341C64.7015 141.341 67.9705 138.072 67.9705 134.039C67.9705 130.006 64.7015 126.737 60.6685 126.737Z" fill="black" fill-opacity="0.42"/>
<path fill-rule="evenodd" clip-rule="evenodd" d="M60.6685 190.104C56.6355 190.104 53.3665 193.374 53.3665 197.406C53.3665 201.439 56.6355 204.708 60.6685 204.708C64.7015 204.708 67.9705 201.439 67.9705 197.406C67.9705 193.374 64.7015 190.104 60.6685 190.104Z" fill="black" fill-opacity="0.42"/>
<path fill-rule="evenodd" clip-rule="evenodd" d="M60.6685 253.47C56.6355 253.47 53.3665 256.739 53.3665 260.772C53.3665 264.804 56.6355 268.074 60.6685 268.074C64.7015 268.074 67.9705 264.804 67.9705 260.772C67.9705 256.739 64.7015 253.47 60.6685 253.47Z" fill="black" fill-opacity="0.42"/>
<path fill-rule="evenodd" clip-rule="evenodd" d="M60.6685 316.836C56.6355 316.836 53.3665 320.106 53.3665 324.138C53.3665 328.171 56.6355 331.44 60.6685 331.44C64.7015 331.44 67.9705 328.171 67.9705 324.138C67.9705 320.106 64.7015 316.836 60.6685 316.836Z" fill="black" fill-opacity="0.42"/>
<path fill-rule="evenodd" clip-rule="evenodd" d="M60.6685 380.203C56.6355 380.203 53.3665 383.473 53.3665 387.505C53.3665 391.538 56.6355 394.807 60.6685 394.807C64.7015 394.807 67.9705 391.538 67.9705 387.505C67.9705 383.473 64.7015 380.203 60.6685 380.203Z" fill="black" fill-opacity="0.42"/>
<path fill-rule="evenodd" clip-rule="evenodd" d="M60.6685 443.569C56.6355 443.569 53.3665 446.839 53.3665 450.871C53.3665 454.904 56.6355 458.173 60.6685 458.173C64.7015 458.173 67.9705 454.904 67.9705 450.871C67.9705 446.839 64.7015 443.569 60.6685 443.569Z" fill="black" fill-opacity="0.42"/>
<path fill-rule="evenodd" clip-rule="evenodd" d="M60.6685 506.935C56.6355 506.935 53.3665 510.205 53.3665 514.238C53.3665 518.27 56.6355 521.539 60.6685 521.539C64.7015 521.539 67.9705 518.27 67.9705 514.238C67.9705 510.205 64.7015 506.935 60.6685 506.935Z" fill="black" fill-opacity="0.42"/>
<path fill-rule="evenodd" clip-rule="evenodd" d="M60.6685 570.301C56.6355 570.301 53.3665 573.571 53.3665 577.604C53.3665 581.636 56.6355 584.905 60.6685 584.905C64.7015 584.905 67.9705 581.636 67.9705 577.604C67.9705 573.571 64.7015 570.301 60.6685 570.301Z" fill="black" fill-opacity="0.42"/>
<path fill-rule="evenodd" clip-rule="evenodd" d="M60.6685 633.668C56.6355 633.668 53.3665 636.937 53.3665 640.97C53.3665 645.002 56.6355 648.272 60.6685 648.272C64.7015 648.272 67.9705 645.002 67.9705 640.97C67.9705 636.937 64.7015 633.668 60.6685 633.668Z" fill="black" fill-opacity="0.42"/>
<path fill-rule="evenodd" clip-rule="evenodd" d="M60.6685 697.035C56.6355 697.035 53.3665 700.304 53.3665 704.337C53.3665 708.369 56.6355 711.639 60.6685 711.639C64.7015 711.639 67.9705 708.369 67.9705 704.337C67.9705 700.304 64.7015 697.035 60.6685 697.035Z" fill="black" fill-opacity="0.42"/>
<path fill-rule="evenodd" clip-rule="evenodd" d="M60.6685 760.401C56.6355 760.401 53.3665 763.67 53.3665 767.703C53.3665 771.736 56.6355 775.005 60.6685 775.005C64.7015 775.005 67.9705 771.736 67.9705 767.703C67.9705 763.67 64.7015 760.401 60.6685 760.401Z" fill="black" fill-opacity="0.42"/>
<path fill-rule="evenodd" clip-rule="evenodd" d="M60.6685 823.767C56.6355 823.767 53.3665 827.037 53.3665 831.069C53.3665 835.102 56.6355 838.371 60.6685 838.371C64.7015 838.371 67.9705 835.102 67.9705 831.069C67.9705 827.037 64.7015 823.767 60.6685 823.767Z" fill="black" fill-opacity="0.42"/>
<path fill-rule="evenodd" clip-rule="evenodd" d="M60.6685 887.133C56.6355 887.133 53.3665 890.403 53.3665 894.435C53.3665 898.468 56.6355 901.737 60.6685 901.737C64.7015 901.737 67.9705 898.468 67.9705 894.435C67.9705 890.403 64.7015 887.133 60.6685 887.133Z" fill="black" fill-opacity="0.42"/>
<path fill-rule="evenodd" clip-rule="evenodd" d="M60.6685 940.5C56.6355 940.5 53.3665 943.77 53.3665 947.802C53.3665 951.835 56.6355 955.104 60.6685 955.104C64.7015 955.104 67.9705 951.835 67.9705 947.802C67.9705 943.77 64.7015 940.5 60.6685 940.5Z" fill="black" fill-opacity="0.42"/>
<path fill-rule="evenodd" clip-rule="evenodd" d="M60.6685 993.866C56.6355 993.866 53.3665 997.136 53.3665 1001.17C53.3665 1005.2 56.6355 1008.47 60.6685 1008.47C64.7015 1008.47 67.9705 1005.2 67.9705 1001.17C67.9705 997.136 64.7015 993.866 60.6685 993.866Z" fill="black" fill-opacity="0.42"/>
<path fill-rule="evenodd" clip-rule="evenodd" d="M124.035 0.00488281C120.002 0.00488281 116.733 3.27388 116.733 7.30688C116.733 11.3389 120.002 14.6089 124.035 14.6089C128.068 14.6089 131.337 11.3389 131.337 7.30688C131.337 3.27388 128.068 0.00488281 124.035 0.00488281Z" fill="black" fill-opacity="0.42"/>
<path fill-rule="evenodd" clip-rule="evenodd" d="M124.035 63.3711C120.002 63.3711 116.733 66.6401 116.733 70.6731C116.733 74.7051 120.002 77.9751 124.035 77.9751C128.068 77.9751 131.337 74.7051 131.337 70.6731C131.337 66.6401 128.068 63.3711 124.035 63.3711Z" fill="black" fill-opacity="0.42"/>
<path fill-rule="evenodd" clip-rule="evenodd" d="M124.035 126.737C120.002 126.737 116.733 130.006 116.733 134.039C116.733 138.072 120.002 141.341 124.035 141.341C128.068 141.341 131.337 138.072 131.337 134.039C131.337 130.006 128.068 126.737 124.035 126.737Z" fill="black" fill-opacity="0.42"/>
<path fill-rule="evenodd" clip-rule="evenodd" d="M124.035 190.104C120.002 190.104 116.733 193.374 116.733 197.406C116.733 201.439 120.002 204.708 124.035 204.708C128.068 204.708 131.337 201.439 131.337 197.406C131.337 193.374 128.068 190.104 124.035 190.104Z" fill="black" fill-opacity="0.42"/>
<path fill-rule="evenodd" clip-rule="evenodd" d="M124.035 253.47C120.002 253.47 116.733 256.739 116.733 260.772C116.733 264.804 120.002 268.074 124.035 268.074C128.068 268.074 131.337 264.804 131.337 260.772C131.337 256.739 128.068 253.47 124.035 253.47Z" fill="black" fill-opacity="0.42"/>
<path fill-rule="evenodd" clip-rule="evenodd" d="M124.035 316.836C120.002 316.836 116.733 320.106 116.733 324.138C116.733 328.171 120.002 331.44 124.035 331.44C128.068 331.44 131.337 328.171 131.337 324.138C131.337 320.106 128.068 316.836 124.035 316.836Z" fill="black" fill-opacity="0.42"/>
<path fill-rule="evenodd" clip-rule="evenodd" d="M124.035 380.203C120.002 380.203 116.733 383.473 116.733 387.505C116.733 391.538 120.002 394.807 124.035 394.807C128.068 394.807 131.337 391.538 131.337 387.505C131.337 383.473 128.068 380.203 124.035 380.203Z" fill="black" fill-opacity="0.42"/>
<path fill-rule="evenodd" clip-rule="evenodd" d="M124.035 443.569C120.002 443.569 116.733 446.839 116.733 450.871C116.733 454.904 120.002 458.173 124.035 458.173C128.068 458.173 131.337 454.904 131.337 450.871C131.337 446.839 128.068 443.569 124.035 443.569Z" fill="black" fill-opacity="0.42"/>
<path fill-rule="evenodd" clip-rule="evenodd" d="M124.035 506.935C120.002 506.935 116.733 510.205 116.733 514.238C116.733 518.27 120.002 521.539 124.035 521.539C128.068 521.539 131.337 518.27 131.337 514.238C131.337 510.205 128.068 506.935 124.035 506.935Z" fill="black" fill-opacity="0.42"/>
<path fill-rule="evenodd" clip-rule="evenodd" d="M124.035 570.301C120.002 570.301 116.733 573.571 116.733 577.604C116.733 581.636 120.002 584.905 124.035 584.905C128.068 584.905 131.337 581.636 131.337 577.604C131.337 573.571 128.068 570.301 124.035 570.301Z" fill="black" fill-opacity="0.42"/>
<path fill-rule="evenodd" clip-rule="evenodd" d="M124.035 633.668C120.002 633.668 116.733 636.937 116.733 640.97C116.733 645.002 120.002 648.272 124.035 648.272C128.068 648.272 131.337 645.002 131.337 640.97C131.337 636.937 128.068 633.668 124.035 633.668Z" fill="black" fill-opacity="0.42"/>
<path fill-rule="evenodd" clip-rule="evenodd" d="M124.035 697.035C120.002 697.035 116.733 700.304 116.733 704.337C116.733 708.369 120.002 711.639 124.035 711.639C128.068 711.639 131.337 708.369 131.337 704.337C131.337 700.304 128.068 697.035 124.035 697.035Z" fill="black" fill-opacity="0.42"/>
<path fill-rule="evenodd" clip-rule="evenodd" d="M124.035 760.401C120.002 760.401 116.733 763.67 116.733 767.703C116.733 771.736 120.002 775.005 124.035 775.005C128.068 775.005 131.337 771.736 131.337 767.703C131.337 763.67 128.068 760.401 124.035 760.401Z" fill="black" fill-opacity="0.42"/>
<path fill-rule="evenodd" clip-rule="evenodd" d="M124.035 823.767C120.002 823.767 116.733 827.037 116.733 831.069C116.733 835.102 120.002 838.371 124.035 838.371C128.068 838.371 131.337 835.102 131.337 831.069C131.337 827.037 128.068 823.767 124.035 823.767Z" fill="black" fill-opacity="0.42"/>
<path fill-rule="evenodd" clip-rule="evenodd" d="M124.035 887.133C120.002 887.133 116.733 890.403 116.733 894.435C116.733 898.468 120.002 901.737 124.035 901.737C128.068 901.737 131.337 898.468 131.337 894.435C131.337 890.403 128.068 887.133 124.035 887.133Z" fill="black" fill-opacity="0.42"/>
<path fill-rule="evenodd" clip-rule="evenodd" d="M124.035 940.5C120.002 940.5 116.733 943.77 116.733 947.802C116.733 951.835 120.002 955.104 124.035 955.104C128.068 955.104 131.337 951.835 131.337 947.802C131.337 943.77 128.068 940.5 124.035 940.5Z" fill="black" fill-opacity="0.42"/>
<path fill-rule="evenodd" clip-rule="evenodd" d="M124.035 993.866C120.002 993.866 116.733 997.136 116.733 1001.17C116.733 1005.2 120.002 1008.47 124.035 1008.47C128.068 1008.47 131.337 1005.2 131.337 1001.17C131.337 997.136 128.068 993.866 124.035 993.866Z" fill="black" fill-opacity="0.42"/>
<path fill-rule="evenodd" clip-rule="evenodd" d="M187.401 0.00488281C183.368 0.00488281 180.099 3.27388 180.099 7.30688C180.099 11.3389 183.368 14.6089 187.401 14.6089C191.434 14.6089 194.703 11.3389 194.703 7.30688C194.703 3.27388 191.434 0.00488281 187.401 0.00488281Z" fill="black" fill-opacity="0.42"/>
<path fill-rule="evenodd" clip-rule="evenodd" d="M187.401 63.3711C183.368 63.3711 180.099 66.6401 180.099 70.6731C180.099 74.7051 183.368 77.9751 187.401 77.9751C191.434 77.9751 194.703 74.7051 194.703 70.6731C194.703 66.6401 191.434 63.3711 187.401 63.3711Z" fill="black" fill-opacity="0.42"/>
<path fill-rule="evenodd" clip-rule="evenodd" d="M187.401 126.737C183.368 126.737 180.099 130.006 180.099 134.039C180.099 138.072 183.368 141.341 187.401 141.341C191.434 141.341 194.703 138.072 194.703 134.039C194.703 130.006 191.434 126.737 187.401 126.737Z" fill="black" fill-opacity="0.42"/>
<path fill-rule="evenodd" clip-rule="evenodd" d="M187.401 190.104C183.368 190.104 180.099 193.374 180.099 197.406C180.099 201.439 183.368 204.708 187.401 204.708C191.434 204.708 194.703 201.439 194.703 197.406C194.703 193.374 191.434 190.104 187.401 190.104Z" fill="black" fill-opacity="0.42"/>
<path fill-rule="evenodd" clip-rule="evenodd" d="M187.401 253.47C183.368 253.47 180.099 256.739 180.099 260.772C180.099 264.804 183.368 268.074 187.401 268.074C191.434 268.074 194.703 264.804 194.703 260.772C194.703 256.739 191.434 253.47 187.401 253.47Z" fill="black" fill-opacity="0.42"/>
<path fill-rule="evenodd" clip-rule="evenodd" d="M187.401 316.836C183.368 316.836 180.099 320.106 180.099 324.138C180.099 328.171 183.368 331.44 187.401 331.44C191.434 331.44 194.703 328.171 194.703 324.138C194.703 320.106 191.434 316.836 187.401 316.836Z" fill="black" fill-opacity="0.42"/>
<path fill-rule="evenodd" clip-rule="evenodd" d="M187.401 380.203C183.368 380.203 180.099 383.473 180.099 387.505C180.099 391.538 183.368 394.807 187.401 394.807C191.434 394.807 194.703 391.538 194.703 387.505C194.703 383.473 191.434 380.203 187.401 380.203Z" fill="black" fill-opacity="0.42"/>
<path fill-rule="evenodd" clip-rule="evenodd" d="M187.401 443.569C183.368 443.569 180.099 446.839 180.099 450.871C180.099 454.904 183.368 458.173 187.401 458.173C191.434 458.173 194.703 454.904 194.703 450.871C194.703 446.839 191.434 443.569 187.401 443.569Z" fill="black" fill-opacity="0.42"/>
<path fill-rule="evenodd" clip-rule="evenodd" d="M187.401 506.935C183.368 506.935 180.099 510.205 180.099 514.238C180.099 518.27 183.368 521.539 187.401 521.539C191.434 521.539 194.703 518.27 194.703 514.238C194.703 510.205 191.434 506.935 187.401 506.935Z" fill="black" fill-opacity="0.42"/>
<path fill-rule="evenodd" clip-rule="evenodd" d="M187.401 570.301C183.368 570.301 180.099 573.571 180.099 577.604C180.099 581.636 183.368 584.905 187.401 584.905C191.434 584.905 194.703 581.636 194.703 577.604C194.703 573.571 191.434 570.301 187.401 570.301Z" fill="black" fill-opacity="0.42"/>
<path fill-rule="evenodd" clip-rule="evenodd" d="M187.401 633.668C183.368 633.668 180.099 636.937 180.099 640.97C180.099 645.002 183.368 648.272 187.401 648.272C191.434 648.272 194.703 645.002 194.703 640.97C194.703 636.937 191.434 633.668 187.401 633.668Z" fill="black" fill-opacity="0.42"/>
<path fill-rule="evenodd" clip-rule="evenodd" d="M187.401 697.035C183.368 697.035 180.099 700.304 180.099 704.337C180.099 708.369 183.368 711.639 187.401 711.639C191.434 711.639 194.703 708.369 194.703 704.337C194.703 700.304 191.434 697.035 187.401 697.035Z" fill="black" fill-opacity="0.42"/>
<path fill-rule="evenodd" clip-rule="evenodd" d="M187.401 760.401C183.368 760.401 180.099 763.67 180.099 767.703C180.099 771.736 183.368 775.005 187.401 775.005C191.434 775.005 194.703 771.736 194.703 767.703C194.703 763.67 191.434 760.401 187.401 760.401Z" fill="black" fill-opacity="0.42"/>
<path fill-rule="evenodd" clip-rule="evenodd" d="M187.401 823.767C183.368 823.767 180.099 827.037 180.099 831.069C180.099 835.102 183.368 838.371 187.401 838.371C191.434 838.371 194.703 835.102 194.703 831.069C194.703 827.037 191.434 823.767 187.401 823.767Z" fill="black" fill-opacity="0.42"/>
<path fill-rule="evenodd" clip-rule="evenodd" d="M187.401 887.133C183.368 887.133 180.099 890.403 180.099 894.435C180.099 898.468 183.368 901.737 187.401 901.737C191.434 901.737 194.703 898.468 194.703 894.435C194.703 890.403 191.434 887.133 187.401 887.133Z" fill="black" fill-opacity="0.42"/>
<path fill-rule="evenodd" clip-rule="evenodd" d="M187.401 940.5C183.368 940.5 180.099 943.77 180.099 947.802C180.099 951.835 183.368 955.104 187.401 955.104C191.434 955.104 194.703 951.835 194.703 947.802C194.703 943.77 191.434 940.5 187.401 940.5Z" fill="black" fill-opacity="0.42"/>
<path fill-rule="evenodd" clip-rule="evenodd" d="M187.401 993.866C183.368 993.866 180.099 997.136 180.099 1001.17C180.099 1005.2 183.368 1008.47 187.401 1008.47C191.434 1008.47 194.703 1005.2 194.703 1001.17C194.703 997.136 191.434 993.866 187.401 993.866Z" fill="black" fill-opacity="0.42"/>
<path fill-rule="evenodd" clip-rule="evenodd" d="M250.767 0.00488281C246.734 0.00488281 243.465 3.27388 243.465 7.30688C243.465 11.3389 246.734 14.6089 250.767 14.6089C254.8 14.6089 258.069 11.3389 258.069 7.30688C258.069 3.27388 254.8 0.00488281 250.767 0.00488281Z" fill="black" fill-opacity="0.42"/>
<path fill-rule="evenodd" clip-rule="evenodd" d="M250.767 63.3711C246.734 63.3711 243.465 66.6401 243.465 70.6731C243.465 74.7051 246.734 77.9751 250.767 77.9751C254.8 77.9751 258.069 74.7051 258.069 70.6731C258.069 66.6401 254.8 63.3711 250.767 63.3711Z" fill="black" fill-opacity="0.42"/>
<path fill-rule="evenodd" clip-rule="evenodd" d="M250.767 126.737C246.734 126.737 243.465 130.006 243.465 134.039C243.465 138.072 246.734 141.341 250.767 141.341C254.8 141.341 258.069 138.072 258.069 134.039C258.069 130.006 254.8 126.737 250.767 126.737Z" fill="black" fill-opacity="0.42"/>
<path fill-rule="evenodd" clip-rule="evenodd" d="M250.767 190.104C246.734 190.104 243.465 193.374 243.465 197.406C243.465 201.439 246.734 204.708 250.767 204.708C254.8 204.708 258.069 201.439 258.069 197.406C258.069 193.374 254.8 190.104 250.767 190.104Z" fill="black" fill-opacity="0.42"/>
<path fill-rule="evenodd" clip-rule="evenodd" d="M250.767 253.47C246.734 253.47 243.465 256.739 243.465 260.772C243.465 264.804 246.734 268.074 250.767 268.074C254.8 268.074 258.069 264.804 258.069 260.772C258.069 256.739 254.8 253.47 250.767 253.47Z" fill="black" fill-opacity="0.42"/>
<path fill-rule="evenodd" clip-rule="evenodd" d="M250.767 316.836C246.734 316.836 243.465 320.106 243.465 324.138C243.465 328.171 246.734 331.44 250.767 331.44C254.8 331.44 258.069 328.171 258.069 324.138C258.069 320.106 254.8 316.836 250.767 316.836Z" fill="black" fill-opacity="0.42"/>
<path fill-rule="evenodd" clip-rule="evenodd" d="M250.767 380.203C246.734 380.203 243.465 383.473 243.465 387.505C243.465 391.538 246.734 394.807 250.767 394.807C254.8 394.807 258.069 391.538 258.069 387.505C258.069 383.473 254.8 380.203 250.767 380.203Z" fill="black" fill-opacity="0.42"/>
<path fill-rule="evenodd" clip-rule="evenodd" d="M250.767 443.569C246.734 443.569 243.465 446.839 243.465 450.871C243.465 454.904 246.734 458.173 250.767 458.173C254.8 458.173 258.069 454.904 258.069 450.871C258.069 446.839 254.8 443.569 250.767 443.569Z" fill="black" fill-opacity="0.42"/>
<path fill-rule="evenodd" clip-rule="evenodd" d="M250.767 506.935C246.734 506.935 243.465 510.205 243.465 514.238C243.465 518.27 246.734 521.539 250.767 521.539C254.8 521.539 258.069 518.27 258.069 514.238C258.069 510.205 254.8 506.935 250.767 506.935Z" fill="black" fill-opacity="0.42"/>
<path fill-rule="evenodd" clip-rule="evenodd" d="M250.767 570.301C246.734 570.301 243.465 573.571 243.465 577.604C243.465 581.636 246.734 584.905 250.767 584.905C254.8 584.905 258.069 581.636 258.069 577.604C258.069 573.571 254.8 570.301 250.767 570.301Z" fill="black" fill-opacity="0.42"/>
<path fill-rule="evenodd" clip-rule="evenodd" d="M250.767 633.668C246.734 633.668 243.465 636.937 243.465 640.97C243.465 645.002 246.734 648.272 250.767 648.272C254.8 648.272 258.069 645.002 258.069 640.97C258.069 636.937 254.8 633.668 250.767 633.668Z" fill="black" fill-opacity="0.42"/>
<path fill-rule="evenodd" clip-rule="evenodd" d="M250.767 697.035C246.734 697.035 243.465 700.304 243.465 704.337C243.465 708.369 246.734 711.639 250.767 711.639C254.8 711.639 258.069 708.369 258.069 704.337C258.069 700.304 254.8 697.035 250.767 697.035Z" fill="black" fill-opacity="0.42"/>
<path fill-rule="evenodd" clip-rule="evenodd" d="M250.767 760.401C246.734 760.401 243.465 763.67 243.465 767.703C243.465 771.736 246.734 775.005 250.767 775.005C254.8 775.005 258.069 771.736 258.069 767.703C258.069 763.67 254.8 760.401 250.767 760.401Z" fill="black" fill-opacity="0.42"/>
<path fill-rule="evenodd" clip-rule="evenodd" d="M250.767 823.767C246.734 823.767 243.465 827.037 243.465 831.069C243.465 835.102 246.734 838.371 250.767 838.371C254.8 838.371 258.069 835.102 258.069 831.069C258.069 827.037 254.8 823.767 250.767 823.767Z" fill="black" fill-opacity="0.42"/>
<path fill-rule="evenodd" clip-rule="evenodd" d="M250.767 887.133C246.734 887.133 243.465 890.403 243.465 894.435C243.465 898.468 246.734 901.737 250.767 901.737C254.8 901.737 258.069 898.468 258.069 894.435C258.069 890.403 254.8 887.133 250.767 887.133Z" fill="black" fill-opacity="0.42"/>
<path fill-rule="evenodd" clip-rule="evenodd" d="M250.767 940.5C246.734 940.5 243.465 943.77 243.465 947.802C243.465 951.835 246.734 955.104 250.767 955.104C254.8 955.104 258.069 951.835 258.069 947.802C258.069 943.77 254.8 940.5 250.767 940.5Z" fill="black" fill-opacity="0.42"/>
<path fill-rule="evenodd" clip-rule="evenodd" d="M250.767 993.866C246.734 993.866 243.465 997.136 243.465 1001.17C243.465 1005.2 246.734 1008.47 250.767 1008.47C254.8 1008.47 258.069 1005.2 258.069 1001.17C258.069 997.136 254.8 993.866 250.767 993.866Z" fill="black" fill-opacity="0.42"/>
<path fill-rule="evenodd" clip-rule="evenodd" d="M314.134 0.00488281C310.101 0.00488281 306.832 3.27388 306.832 7.30688C306.832 11.3389 310.101 14.6089 314.134 14.6089C318.167 14.6089 321.436 11.3389 321.436 7.30688C321.436 3.27388 318.167 0.00488281 314.134 0.00488281Z" fill="black" fill-opacity="0.42"/>
<path fill-rule="evenodd" clip-rule="evenodd" d="M314.134 63.3711C310.101 63.3711 306.832 66.6401 306.832 70.6731C306.832 74.7051 310.101 77.9751 314.134 77.9751C318.167 77.9751 321.436 74.7051 321.436 70.6731C321.436 66.6401 318.167 63.3711 314.134 63.3711Z" fill="black" fill-opacity="0.42"/>
<path fill-rule="evenodd" clip-rule="evenodd" d="M314.134 126.737C310.101 126.737 306.832 130.006 306.832 134.039C306.832 138.072 310.101 141.341 314.134 141.341C318.167 141.341 321.436 138.072 321.436 134.039C321.436 130.006 318.167 126.737 314.134 126.737Z" fill="black" fill-opacity="0.42"/>
<path fill-rule="evenodd" clip-rule="evenodd" d="M314.134 190.104C310.101 190.104 306.832 193.374 306.832 197.406C306.832 201.439 310.101 204.708 314.134 204.708C318.167 204.708 321.436 201.439 321.436 197.406C321.436 193.374 318.167 190.104 314.134 190.104Z" fill="black" fill-opacity="0.42"/>
<path fill-rule="evenodd" clip-rule="evenodd" d="M314.134 253.47C310.101 253.47 306.832 256.739 306.832 260.772C306.832 264.804 310.101 268.074 314.134 268.074C318.167 268.074 321.436 264.804 321.436 260.772C321.436 256.739 318.167 253.47 314.134 253.47Z" fill="black" fill-opacity="0.42"/>
<path fill-rule="evenodd" clip-rule="evenodd" d="M314.134 316.836C310.101 316.836 306.832 320.106 306.832 324.138C306.832 328.171 310.101 331.44 314.134 331.44C318.167 331.44 321.436 328.171 321.436 324.138C321.436 320.106 318.167 316.836 314.134 316.836Z" fill="black" fill-opacity="0.42"/>
<path fill-rule="evenodd" clip-rule="evenodd" d="M314.134 380.203C310.101 380.203 306.832 383.473 306.832 387.505C306.832 391.538 310.101 394.807 314.134 394.807C318.167 394.807 321.436 391.538 321.436 387.505C321.436 383.473 318.167 380.203 314.134 380.203Z" fill="black" fill-opacity="0.42"/>
<path fill-rule="evenodd" clip-rule="evenodd" d="M314.134 443.569C310.101 443.569 306.832 446.839 306.832 450.871C306.832 454.904 310.101 458.173 314.134 458.173C318.167 458.173 321.436 454.904 321.436 450.871C321.436 446.839 318.167 443.569 314.134 443.569Z" fill="black" fill-opacity="0.42"/>
<path fill-rule="evenodd" clip-rule="evenodd" d="M314.134 506.935C310.101 506.935 306.832 510.205 306.832 514.238C306.832 518.27 310.101 521.539 314.134 521.539C318.167 521.539 321.436 518.27 321.436 514.238C321.436 510.205 318.167 506.935 314.134 506.935Z" fill="black" fill-opacity="0.42"/>
<path fill-rule="evenodd" clip-rule="evenodd" d="M314.134 570.301C310.101 570.301 306.832 573.571 306.832 577.604C306.832 581.636 310.101 584.905 314.134 584.905C318.167 584.905 321.436 581.636 321.436 577.604C321.436 573.571 318.167 570.301 314.134 570.301Z" fill="black" fill-opacity="0.42"/>
<path fill-rule="evenodd" clip-rule="evenodd" d="M314.134 633.668C310.101 633.668 306.832 636.937 306.832 640.97C306.832 645.002 310.101 648.272 314.134 648.272C318.167 648.272 321.436 645.002 321.436 640.97C321.436 636.937 318.167 633.668 314.134 633.668Z" fill="black" fill-opacity="0.42"/>
<path fill-rule="evenodd" clip-rule="evenodd" d="M314.134 697.035C310.101 697.035 306.832 700.304 306.832 704.337C306.832 708.369 310.101 711.639 314.134 711.639C318.167 711.639 321.436 708.369 321.436 704.337C321.436 700.304 318.167 697.035 314.134 697.035Z" fill="black" fill-opacity="0.42"/>
<path fill-rule="evenodd" clip-rule="evenodd" d="M314.134 760.401C310.101 760.401 306.832 763.67 306.832 767.703C306.832 771.736 310.101 775.005 314.134 775.005C318.167 775.005 321.436 771.736 321.436 767.703C321.436 763.67 318.167 760.401 314.134 760.401Z" fill="black" fill-opacity="0.42"/>
<path fill-rule="evenodd" clip-rule="evenodd" d="M314.134 823.767C310.101 823.767 306.832 827.037 306.832 831.069C306.832 835.102 310.101 838.371 314.134 838.371C318.167 838.371 321.436 835.102 321.436 831.069C321.436 827.037 318.167 823.767 314.134 823.767Z" fill="black" fill-opacity="0.42"/>
<path fill-rule="evenodd" clip-rule="evenodd" d="M314.134 887.133C310.101 887.133 306.832 890.403 306.832 894.435C306.832 898.468 310.101 901.737 314.134 901.737C318.167 901.737 321.436 898.468 321.436 894.435C321.436 890.403 318.167 887.133 314.134 887.133Z" fill="black" fill-opacity="0.42"/>
<path fill-rule="evenodd" clip-rule="evenodd" d="M314.134 940.5C310.101 940.5 306.832 943.77 306.832 947.802C306.832 951.835 310.101 955.104 314.134 955.104C318.167 955.104 321.436 951.835 321.436 947.802C321.436 943.77 318.167 940.5 314.134 940.5Z" fill="black" fill-opacity="0.42"/>
<path fill-rule="evenodd" clip-rule="evenodd" d="M314.134 993.866C310.101 993.866 306.832 997.136 306.832 1001.17C306.832 1005.2 310.101 1008.47 314.134 1008.47C318.167 1008.47 321.436 1005.2 321.436 1001.17C321.436 997.136 318.167 993.866 314.134 993.866Z" fill="black" fill-opacity="0.42"/>
<path fill-rule="evenodd" clip-rule="evenodd" d="M377.5 0.00488281C373.467 0.00488281 370.198 3.27388 370.198 7.30688C370.198 11.3389 373.467 14.6089 377.5 14.6089C381.533 14.6089 384.802 11.3389 384.802 7.30688C384.802 3.27388 381.533 0.00488281 377.5 0.00488281Z" fill="black" fill-opacity="0.42"/>
<path fill-rule="evenodd" clip-rule="evenodd" d="M377.5 63.3711C373.467 63.3711 370.198 66.6401 370.198 70.6731C370.198 74.7051 373.467 77.9751 377.5 77.9751C381.533 77.9751 384.802 74.7051 384.802 70.6731C384.802 66.6401 381.533 63.3711 377.5 63.3711Z" fill="black" fill-opacity="0.42"/>
<path fill-rule="evenodd" clip-rule="evenodd" d="M377.5 126.737C373.467 126.737 370.198 130.006 370.198 134.039C370.198 138.072 373.467 141.341 377.5 141.341C381.533 141.341 384.802 138.072 384.802 134.039C384.802 130.006 381.533 126.737 377.5 126.737Z" fill="black" fill-opacity="0.42"/>
<path fill-rule="evenodd" clip-rule="evenodd" d="M377.5 190.104C373.467 190.104 370.198 193.374 370.198 197.406C370.198 201.439 373.467 204.708 377.5 204.708C381.533 204.708 384.802 201.439 384.802 197.406C384.802 193.374 381.533 190.104 377.5 190.104Z" fill="black" fill-opacity="0.42"/>
<path fill-rule="evenodd" clip-rule="evenodd" d="M377.5 253.47C373.467 253.47 370.198 256.739 370.198 260.772C370.198 264.804 373.467 268.074 377.5 268.074C381.533 268.074 384.802 264.804 384.802 260.772C384.802 256.739 381.533 253.47 377.5 253.47Z" fill="black" fill-opacity="0.42"/>
<path fill-rule="evenodd" clip-rule="evenodd" d="M377.5 316.836C373.467 316.836 370.198 320.106 370.198 324.138C370.198 328.171 373.467 331.44 377.5 331.44C381.533 331.44 384.802 328.171 384.802 324.138C384.802 320.106 381.533 316.836 377.5 316.836Z" fill="black" fill-opacity="0.42"/>
<path fill-rule="evenodd" clip-rule="evenodd" d="M377.5 380.203C373.467 380.203 370.198 383.473 370.198 387.505C370.198 391.538 373.467 394.807 377.5 394.807C381.533 394.807 384.802 391.538 384.802 387.505C384.802 383.473 381.533 380.203 377.5 380.203Z" fill="black" fill-opacity="0.42"/>
<path fill-rule="evenodd" clip-rule="evenodd" d="M377.5 443.569C373.467 443.569 370.198 446.839 370.198 450.871C370.198 454.904 373.467 458.173 377.5 458.173C381.533 458.173 384.802 454.904 384.802 450.871C384.802 446.839 381.533 443.569 377.5 443.569Z" fill="black" fill-opacity="0.42"/>
<path fill-rule="evenodd" clip-rule="evenodd" d="M377.5 506.935C373.467 506.935 370.198 510.205 370.198 514.238C370.198 518.27 373.467 521.539 377.5 521.539C381.533 521.539 384.802 518.27 384.802 514.238C384.802 510.205 381.533 506.935 377.5 506.935Z" fill="black" fill-opacity="0.42"/>
<path fill-rule="evenodd" clip-rule="evenodd" d="M377.5 570.301C373.467 570.301 370.198 573.571 370.198 577.604C370.198 581.636 373.467 584.905 377.5 584.905C381.533 584.905 384.802 581.636 384.802 577.604C384.802 573.571 381.533 570.301 377.5 570.301Z" fill="black" fill-opacity="0.42"/>
<path fill-rule="evenodd" clip-rule="evenodd" d="M377.5 633.668C373.467 633.668 370.198 636.937 370.198 640.97C370.198 645.002 373.467 648.272 377.5 648.272C381.533 648.272 384.802 645.002 384.802 640.97C384.802 636.937 381.533 633.668 377.5 633.668Z" fill="black" fill-opacity="0.42"/>
<path fill-rule="evenodd" clip-rule="evenodd" d="M377.5 697.035C373.467 697.035 370.198 700.304 370.198 704.337C370.198 708.369 373.467 711.639 377.5 711.639C381.533 711.639 384.802 708.369 384.802 704.337C384.802 700.304 381.533 697.035 377.5 697.035Z" fill="black" fill-opacity="0.42"/>
<path fill-rule="evenodd" clip-rule="evenodd" d="M377.5 760.401C373.467 760.401 370.198 763.67 370.198 767.703C370.198 771.736 373.467 775.005 377.5 775.005C381.533 775.005 384.802 771.736 384.802 767.703C384.802 763.67 381.533 760.401 377.5 760.401Z" fill="black" fill-opacity="0.42"/>
<path fill-rule="evenodd" clip-rule="evenodd" d="M377.5 823.767C373.467 823.767 370.198 827.037 370.198 831.069C370.198 835.102 373.467 838.371 377.5 838.371C381.533 838.371 384.802 835.102 384.802 831.069C384.802 827.037 381.533 823.767 377.5 823.767Z" fill="black" fill-opacity="0.42"/>
<path fill-rule="evenodd" clip-rule="evenodd" d="M377.5 887.133C373.467 887.133 370.198 890.403 370.198 894.435C370.198 898.468 373.467 901.737 377.5 901.737C381.533 901.737 384.802 898.468 384.802 894.435C384.802 890.403 381.533 887.133 377.5 887.133Z" fill="black" fill-opacity="0.42"/>
<path fill-rule="evenodd" clip-rule="evenodd" d="M377.5 940.5C373.467 940.5 370.198 943.77 370.198 947.802C370.198 951.835 373.467 955.104 377.5 955.104C381.533 955.104 384.802 951.835 384.802 947.802C384.802 943.77 381.533 940.5 377.5 940.5Z" fill="black" fill-opacity="0.42"/>
<path fill-rule="evenodd" clip-rule="evenodd" d="M377.5 993.866C373.467 993.866 370.198 997.136 370.198 1001.17C370.198 1005.2 373.467 1008.47 377.5 1008.47C381.533 1008.47 384.802 1005.2 384.802 1001.17C384.802 997.136 381.533 993.866 377.5 993.866Z" fill="black" fill-opacity="0.42"/>
<path fill-rule="evenodd" clip-rule="evenodd" d="M440.866 0.00488281C436.834 0.00488281 433.564 3.27388 433.564 7.30688C433.564 11.3389 436.834 14.6089 440.866 14.6089C444.899 14.6089 448.168 11.3389 448.168 7.30688C448.168 3.27388 444.899 0.00488281 440.866 0.00488281Z" fill="black" fill-opacity="0.42"/>
<path fill-rule="evenodd" clip-rule="evenodd" d="M440.866 63.3711C436.834 63.3711 433.564 66.6401 433.564 70.6731C433.564 74.7051 436.834 77.9751 440.866 77.9751C444.899 77.9751 448.168 74.7051 448.168 70.6731C448.168 66.6401 444.899 63.3711 440.866 63.3711Z" fill="black" fill-opacity="0.42"/>
<path fill-rule="evenodd" clip-rule="evenodd" d="M440.866 126.737C436.834 126.737 433.564 130.006 433.564 134.039C433.564 138.072 436.834 141.341 440.866 141.341C444.899 141.341 448.168 138.072 448.168 134.039C448.168 130.006 444.899 126.737 440.866 126.737Z" fill="black" fill-opacity="0.42"/>
<path fill-rule="evenodd" clip-rule="evenodd" d="M440.866 190.104C436.834 190.104 433.564 193.374 433.564 197.406C433.564 201.439 436.834 204.708 440.866 204.708C444.899 204.708 448.168 201.439 448.168 197.406C448.168 193.374 444.899 190.104 440.866 190.104Z" fill="black" fill-opacity="0.42"/>
<path fill-rule="evenodd" clip-rule="evenodd" d="M440.866 253.47C436.834 253.47 433.564 256.739 433.564 260.772C433.564 264.804 436.834 268.074 440.866 268.074C444.899 268.074 448.168 264.804 448.168 260.772C448.168 256.739 444.899 253.47 440.866 253.47Z" fill="black" fill-opacity="0.42"/>
<path fill-rule="evenodd" clip-rule="evenodd" d="M440.866 316.836C436.834 316.836 433.564 320.106 433.564 324.138C433.564 328.171 436.834 331.44 440.866 331.44C444.899 331.44 448.168 328.171 448.168 324.138C448.168 320.106 444.899 316.836 440.866 316.836Z" fill="black" fill-opacity="0.42"/>
<path fill-rule="evenodd" clip-rule="evenodd" d="M440.866 380.203C436.834 380.203 433.564 383.473 433.564 387.505C433.564 391.538 436.834 394.807 440.866 394.807C444.899 394.807 448.168 391.538 448.168 387.505C448.168 383.473 444.899 380.203 440.866 380.203Z" fill="black" fill-opacity="0.42"/>
<path fill-rule="evenodd" clip-rule="evenodd" d="M440.866 443.569C436.834 443.569 433.564 446.839 433.564 450.871C433.564 454.904 436.834 458.173 440.866 458.173C444.899 458.173 448.168 454.904 448.168 450.871C448.168 446.839 444.899 443.569 440.866 443.569Z" fill="black" fill-opacity="0.42"/>
<path fill-rule="evenodd" clip-rule="evenodd" d="M440.866 506.935C436.834 506.935 433.564 510.205 433.564 514.238C433.564 518.27 436.834 521.539 440.866 521.539C444.899 521.539 448.168 518.27 448.168 514.238C448.168 510.205 444.899 506.935 440.866 506.935Z" fill="black" fill-opacity="0.42"/>
<path fill-rule="evenodd" clip-rule="evenodd" d="M440.866 570.301C436.834 570.301 433.564 573.571 433.564 577.604C433.564 581.636 436.834 584.905 440.866 584.905C444.899 584.905 448.168 581.636 448.168 577.604C448.168 573.571 444.899 570.301 440.866 570.301Z" fill="black" fill-opacity="0.42"/>
<path fill-rule="evenodd" clip-rule="evenodd" d="M440.866 633.668C436.834 633.668 433.564 636.937 433.564 640.97C433.564 645.002 436.834 648.272 440.866 648.272C444.899 648.272 448.168 645.002 448.168 640.97C448.168 636.937 444.899 633.668 440.866 633.668Z" fill="black" fill-opacity="0.42"/>
<path fill-rule="evenodd" clip-rule="evenodd" d="M440.866 697.035C436.834 697.035 433.564 700.304 433.564 704.337C433.564 708.369 436.834 711.639 440.866 711.639C444.899 711.639 448.168 708.369 448.168 704.337C448.168 700.304 444.899 697.035 440.866 697.035Z" fill="black" fill-opacity="0.42"/>
<path fill-rule="evenodd" clip-rule="evenodd" d="M440.866 760.401C436.834 760.401 433.564 763.67 433.564 767.703C433.564 771.736 436.834 775.005 440.866 775.005C444.899 775.005 448.168 771.736 448.168 767.703C448.168 763.67 444.899 760.401 440.866 760.401Z" fill="black" fill-opacity="0.42"/>
<path fill-rule="evenodd" clip-rule="evenodd" d="M440.866 823.767C436.834 823.767 433.564 827.037 433.564 831.069C433.564 835.102 436.834 838.371 440.866 838.371C444.899 838.371 448.168 835.102 448.168 831.069C448.168 827.037 444.899 823.767 440.866 823.767Z" fill="black" fill-opacity="0.42"/>
<path fill-rule="evenodd" clip-rule="evenodd" d="M440.866 887.133C436.834 887.133 433.564 890.403 433.564 894.435C433.564 898.468 436.834 901.737 440.866 901.737C444.899 901.737 448.168 898.468 448.168 894.435C448.168 890.403 444.899 887.133 440.866 887.133Z" fill="black" fill-opacity="0.42"/>
<path fill-rule="evenodd" clip-rule="evenodd" d="M440.866 940.5C436.834 940.5 433.564 943.77 433.564 947.802C433.564 951.835 436.834 955.104 440.866 955.104C444.899 955.104 448.168 951.835 448.168 947.802C448.168 943.77 444.899 940.5 440.866 940.5Z" fill="black" fill-opacity="0.42"/>
<path fill-rule="evenodd" clip-rule="evenodd" d="M440.866 993.866C436.834 993.866 433.564 997.136 433.564 1001.17C433.564 1005.2 436.834 1008.47 440.866 1008.47C444.899 1008.47 448.168 1005.2 448.168 1001.17C448.168 997.136 444.899 993.866 440.866 993.866Z" fill="black" fill-opacity="0.42"/>
<path fill-rule="evenodd" clip-rule="evenodd" d="M504.232 0.00488281C500.2 0.00488281 496.93 3.27388 496.93 7.30688C496.93 11.3389 500.2 14.6089 504.232 14.6089C508.265 14.6089 511.534 11.3389 511.534 7.30688C511.534 3.27388 508.265 0.00488281 504.232 0.00488281Z" fill="black" fill-opacity="0.42"/>
<path fill-rule="evenodd" clip-rule="evenodd" d="M504.232 63.3711C500.2 63.3711 496.93 66.6401 496.93 70.6731C496.93 74.7051 500.2 77.9751 504.232 77.9751C508.265 77.9751 511.534 74.7051 511.534 70.6731C511.534 66.6401 508.265 63.3711 504.232 63.3711Z" fill="black" fill-opacity="0.42"/>
<path fill-rule="evenodd" clip-rule="evenodd" d="M504.232 126.737C500.2 126.737 496.93 130.006 496.93 134.039C496.93 138.072 500.2 141.341 504.232 141.341C508.265 141.341 511.534 138.072 511.534 134.039C511.534 130.006 508.265 126.737 504.232 126.737Z" fill="black" fill-opacity="0.42"/>
<path fill-rule="evenodd" clip-rule="evenodd" d="M504.232 190.104C500.2 190.104 496.93 193.374 496.93 197.406C496.93 201.439 500.2 204.708 504.232 204.708C508.265 204.708 511.534 201.439 511.534 197.406C511.534 193.374 508.265 190.104 504.232 190.104Z" fill="black" fill-opacity="0.42"/>
<path fill-rule="evenodd" clip-rule="evenodd" d="M504.232 253.47C500.2 253.47 496.93 256.739 496.93 260.772C496.93 264.804 500.2 268.074 504.232 268.074C508.265 268.074 511.534 264.804 511.534 260.772C511.534 256.739 508.265 253.47 504.232 253.47Z" fill="black" fill-opacity="0.42"/>
<path fill-rule="evenodd" clip-rule="evenodd" d="M504.232 316.836C500.2 316.836 496.93 320.106 496.93 324.138C496.93 328.171 500.2 331.44 504.232 331.44C508.265 331.44 511.534 328.171 511.534 324.138C511.534 320.106 508.265 316.836 504.232 316.836Z" fill="black" fill-opacity="0.42"/>
<path fill-rule="evenodd" clip-rule="evenodd" d="M504.232 380.203C500.2 380.203 496.93 383.473 496.93 387.505C496.93 391.538 500.2 394.807 504.232 394.807C508.265 394.807 511.534 391.538 511.534 387.505C511.534 383.473 508.265 380.203 504.232 380.203Z" fill="black" fill-opacity="0.42"/>
<path fill-rule="evenodd" clip-rule="evenodd" d="M504.232 443.569C500.2 443.569 496.93 446.839 496.93 450.871C496.93 454.904 500.2 458.173 504.232 458.173C508.265 458.173 511.534 454.904 511.534 450.871C511.534 446.839 508.265 443.569 504.232 443.569Z" fill="black" fill-opacity="0.42"/>
<path fill-rule="evenodd" clip-rule="evenodd" d="M504.232 506.935C500.2 506.935 496.93 510.205 496.93 514.238C496.93 518.27 500.2 521.539 504.232 521.539C508.265 521.539 511.534 518.27 511.534 514.238C511.534 510.205 508.265 506.935 504.232 506.935Z" fill="black" fill-opacity="0.42"/>
<path fill-rule="evenodd" clip-rule="evenodd" d="M504.232 570.301C500.2 570.301 496.93 573.571 496.93 577.604C496.93 581.636 500.2 584.905 504.232 584.905C508.265 584.905 511.534 581.636 511.534 577.604C511.534 573.571 508.265 570.301 504.232 570.301Z" fill="black" fill-opacity="0.42"/>
<path fill-rule="evenodd" clip-rule="evenodd" d="M504.232 633.668C500.2 633.668 496.93 636.937 496.93 640.97C496.93 645.002 500.2 648.272 504.232 648.272C508.265 648.272 511.534 645.002 511.534 640.97C511.534 636.937 508.265 633.668 504.232 633.668Z" fill="black" fill-opacity="0.42"/>
<path fill-rule="evenodd" clip-rule="evenodd" d="M504.232 697.035C500.2 697.035 496.93 700.304 496.93 704.337C496.93 708.369 500.2 711.639 504.232 711.639C508.265 711.639 511.534 708.369 511.534 704.337C511.534 700.304 508.265 697.035 504.232 697.035Z" fill="black" fill-opacity="0.42"/>
<path fill-rule="evenodd" clip-rule="evenodd" d="M504.232 760.401C500.2 760.401 496.93 763.67 496.93 767.703C496.93 771.736 500.2 775.005 504.232 775.005C508.265 775.005 511.534 771.736 511.534 767.703C511.534 763.67 508.265 760.401 504.232 760.401Z" fill="black" fill-opacity="0.42"/>
<path fill-rule="evenodd" clip-rule="evenodd" d="M504.232 823.767C500.2 823.767 496.93 827.037 496.93 831.069C496.93 835.102 500.2 838.371 504.232 838.371C508.265 838.371 511.534 835.102 511.534 831.069C511.534 827.037 508.265 823.767 504.232 823.767Z" fill="black" fill-opacity="0.42"/>
<path fill-rule="evenodd" clip-rule="evenodd" d="M504.232 887.133C500.2 887.133 496.93 890.403 496.93 894.435C496.93 898.468 500.2 901.737 504.232 901.737C508.265 901.737 511.534 898.468 511.534 894.435C511.534 890.403 508.265 887.133 504.232 887.133Z" fill="black" fill-opacity="0.42"/>
<path fill-rule="evenodd" clip-rule="evenodd" d="M504.232 940.5C500.2 940.5 496.93 943.77 496.93 947.802C496.93 951.835 500.2 955.104 504.232 955.104C508.265 955.104 511.534 951.835 511.534 947.802C511.534 943.77 508.265 940.5 504.232 940.5Z" fill="black" fill-opacity="0.42"/>
<path fill-rule="evenodd" clip-rule="evenodd" d="M504.232 993.866C500.2 993.866 496.93 997.136 496.93 1001.17C496.93 1005.2 500.2 1008.47 504.232 1008.47C508.265 1008.47 511.534 1005.2 511.534 1001.17C511.534 997.136 508.265 993.866 504.232 993.866Z" fill="black" fill-opacity="0.42"/>
<path fill-rule="evenodd" clip-rule="evenodd" d="M567.598 0.00488281C563.566 0.00488281 560.296 3.27388 560.296 7.30688C560.296 11.3389 563.566 14.6089 567.598 14.6089C571.631 14.6089 574.901 11.3389 574.901 7.30688C574.901 3.27388 571.631 0.00488281 567.598 0.00488281Z" fill="black" fill-opacity="0.42"/>
<path fill-rule="evenodd" clip-rule="evenodd" d="M567.598 63.3711C563.566 63.3711 560.296 66.6401 560.296 70.6731C560.296 74.7051 563.566 77.9751 567.598 77.9751C571.631 77.9751 574.901 74.7051 574.901 70.6731C574.901 66.6401 571.631 63.3711 567.598 63.3711Z" fill="black" fill-opacity="0.42"/>
<path fill-rule="evenodd" clip-rule="evenodd" d="M567.598 126.737C563.566 126.737 560.296 130.006 560.296 134.039C560.296 138.072 563.566 141.341 567.598 141.341C571.631 141.341 574.901 138.072 574.901 134.039C574.901 130.006 571.631 126.737 567.598 126.737Z" fill="black" fill-opacity="0.42"/>
<path fill-rule="evenodd" clip-rule="evenodd" d="M567.598 190.104C563.566 190.104 560.296 193.374 560.296 197.406C560.296 201.439 563.566 204.708 567.598 204.708C571.631 204.708 574.901 201.439 574.901 197.406C574.901 193.374 571.631 190.104 567.598 190.104Z" fill="black" fill-opacity="0.42"/>
<path fill-rule="evenodd" clip-rule="evenodd" d="M567.598 253.47C563.566 253.47 560.296 256.739 560.296 260.772C560.296 264.804 563.566 268.074 567.598 268.074C571.631 268.074 574.901 264.804 574.901 260.772C574.901 256.739 571.631 253.47 567.598 253.47Z" fill="black" fill-opacity="0.42"/>
<path fill-rule="evenodd" clip-rule="evenodd" d="M567.598 316.836C563.566 316.836 560.296 320.106 560.296 324.138C560.296 328.171 563.566 331.44 567.598 331.44C571.631 331.44 574.901 328.171 574.901 324.138C574.901 320.106 571.631 316.836 567.598 316.836Z" fill="black" fill-opacity="0.42"/>
<path fill-rule="evenodd" clip-rule="evenodd" d="M567.598 380.203C563.566 380.203 560.296 383.473 560.296 387.505C560.296 391.538 563.566 394.807 567.598 394.807C571.631 394.807 574.901 391.538 574.901 387.505C574.901 383.473 571.631 380.203 567.598 380.203Z" fill="black" fill-opacity="0.42"/>
<path fill-rule="evenodd" clip-rule="evenodd" d="M567.598 443.569C563.566 443.569 560.296 446.839 560.296 450.871C560.296 454.904 563.566 458.173 567.598 458.173C571.631 458.173 574.901 454.904 574.901 450.871C574.901 446.839 571.631 443.569 567.598 443.569Z" fill="black" fill-opacity="0.42"/>
<path fill-rule="evenodd" clip-rule="evenodd" d="M567.598 506.935C563.566 506.935 560.296 510.205 560.296 514.238C560.296 518.27 563.566 521.539 567.598 521.539C571.631 521.539 574.901 518.27 574.901 514.238C574.901 510.205 571.631 506.935 567.598 506.935Z" fill="black" fill-opacity="0.42"/>
<path fill-rule="evenodd" clip-rule="evenodd" d="M567.598 570.301C563.566 570.301 560.296 573.571 560.296 577.604C560.296 581.636 563.566 584.905 567.598 584.905C571.631 584.905 574.901 581.636 574.901 577.604C574.901 573.571 571.631 570.301 567.598 570.301Z" fill="black" fill-opacity="0.42"/>
<path fill-rule="evenodd" clip-rule="evenodd" d="M567.598 633.668C563.566 633.668 560.296 636.937 560.296 640.97C560.296 645.002 563.566 648.272 567.598 648.272C571.631 648.272 574.901 645.002 574.901 640.97C574.901 636.937 571.631 633.668 567.598 633.668Z" fill="black" fill-opacity="0.42"/>
<path fill-rule="evenodd" clip-rule="evenodd" d="M567.598 697.035C563.566 697.035 560.296 700.304 560.296 704.337C560.296 708.369 563.566 711.639 567.598 711.639C571.631 711.639 574.901 708.369 574.901 704.337C574.901 700.304 571.631 697.035 567.598 697.035Z" fill="black" fill-opacity="0.42"/>
<path fill-rule="evenodd" clip-rule="evenodd" d="M567.598 760.401C563.566 760.401 560.296 763.67 560.296 767.703C560.296 771.736 563.566 775.005 567.598 775.005C571.631 775.005 574.901 771.736 574.901 767.703C574.901 763.67 571.631 760.401 567.598 760.401Z" fill="black" fill-opacity="0.42"/>
<path fill-rule="evenodd" clip-rule="evenodd" d="M567.598 823.767C563.566 823.767 560.296 827.037 560.296 831.069C560.296 835.102 563.566 838.371 567.598 838.371C571.631 838.371 574.901 835.102 574.901 831.069C574.901 827.037 571.631 823.767 567.598 823.767Z" fill="black" fill-opacity="0.42"/>
<path fill-rule="evenodd" clip-rule="evenodd" d="M567.598 887.133C563.566 887.133 560.296 890.403 560.296 894.435C560.296 898.468 563.566 901.737 567.598 901.737C571.631 901.737 574.901 898.468 574.901 894.435C574.901 890.403 571.631 887.133 567.598 887.133Z" fill="black" fill-opacity="0.42"/>
<path fill-rule="evenodd" clip-rule="evenodd" d="M567.598 940.5C563.566 940.5 560.296 943.77 560.296 947.802C560.296 951.835 563.566 955.104 567.598 955.104C571.631 955.104 574.901 951.835 574.901 947.802C574.901 943.77 571.631 940.5 567.598 940.5Z" fill="black" fill-opacity="0.42"/>
<path fill-rule="evenodd" clip-rule="evenodd" d="M567.598 993.866C563.566 993.866 560.296 997.136 560.296 1001.17C560.296 1005.2 563.566 1008.47 567.598 1008.47C571.631 1008.47 574.901 1005.2 574.901 1001.17C574.901 997.136 571.631 993.866 567.598 993.866Z" fill="black" fill-opacity="0.42"/>
<path fill-rule="evenodd" clip-rule="evenodd" d="M630.966 0.00488281C626.933 0.00488281 623.663 3.27388 623.663 7.30688C623.663 11.3389 626.933 14.6089 630.966 14.6089C634.998 14.6089 638.268 11.3389 638.268 7.30688C638.268 3.27388 634.998 0.00488281 630.966 0.00488281Z" fill="black" fill-opacity="0.42"/>
<path fill-rule="evenodd" clip-rule="evenodd" d="M630.966 63.3711C626.933 63.3711 623.663 66.6401 623.663 70.6731C623.663 74.7051 626.933 77.9751 630.966 77.9751C634.998 77.9751 638.268 74.7051 638.268 70.6731C638.268 66.6401 634.998 63.3711 630.966 63.3711Z" fill="black" fill-opacity="0.42"/>
<path fill-rule="evenodd" clip-rule="evenodd" d="M630.966 126.737C626.933 126.737 623.663 130.006 623.663 134.039C623.663 138.072 626.933 141.341 630.966 141.341C634.998 141.341 638.268 138.072 638.268 134.039C638.268 130.006 634.998 126.737 630.966 126.737Z" fill="black" fill-opacity="0.42"/>
<path fill-rule="evenodd" clip-rule="evenodd" d="M630.966 190.104C626.933 190.104 623.663 193.374 623.663 197.406C623.663 201.439 626.933 204.708 630.966 204.708C634.998 204.708 638.268 201.439 638.268 197.406C638.268 193.374 634.998 190.104 630.966 190.104Z" fill="black" fill-opacity="0.42"/>
<path fill-rule="evenodd" clip-rule="evenodd" d="M630.966 253.47C626.933 253.47 623.663 256.739 623.663 260.772C623.663 264.804 626.933 268.074 630.966 268.074C634.998 268.074 638.268 264.804 638.268 260.772C638.268 256.739 634.998 253.47 630.966 253.47Z" fill="black" fill-opacity="0.42"/>
<path fill-rule="evenodd" clip-rule="evenodd" d="M630.966 316.836C626.933 316.836 623.663 320.106 623.663 324.138C623.663 328.171 626.933 331.44 630.966 331.44C634.998 331.44 638.268 328.171 638.268 324.138C638.268 320.106 634.998 316.836 630.966 316.836Z" fill="black" fill-opacity="0.42"/>
<path fill-rule="evenodd" clip-rule="evenodd" d="M630.966 380.203C626.933 380.203 623.663 383.473 623.663 387.505C623.663 391.538 626.933 394.807 630.966 394.807C634.998 394.807 638.268 391.538 638.268 387.505C638.268 383.473 634.998 380.203 630.966 380.203Z" fill="black" fill-opacity="0.42"/>
<path fill-rule="evenodd" clip-rule="evenodd" d="M630.966 443.569C626.933 443.569 623.663 446.839 623.663 450.871C623.663 454.904 626.933 458.173 630.966 458.173C634.998 458.173 638.268 454.904 638.268 450.871C638.268 446.839 634.998 443.569 630.966 443.569Z" fill="black" fill-opacity="0.42"/>
<path fill-rule="evenodd" clip-rule="evenodd" d="M630.966 506.935C626.933 506.935 623.663 510.205 623.663 514.238C623.663 518.27 626.933 521.539 630.966 521.539C634.998 521.539 638.268 518.27 638.268 514.238C638.268 510.205 634.998 506.935 630.966 506.935Z" fill="black" fill-opacity="0.42"/>
<path fill-rule="evenodd" clip-rule="evenodd" d="M630.966 570.301C626.933 570.301 623.663 573.571 623.663 577.604C623.663 581.636 626.933 584.905 630.966 584.905C634.998 584.905 638.268 581.636 638.268 577.604C638.268 573.571 634.998 570.301 630.966 570.301Z" fill="black" fill-opacity="0.42"/>
<path fill-rule="evenodd" clip-rule="evenodd" d="M630.966 633.668C626.933 633.668 623.663 636.937 623.663 640.97C623.663 645.002 626.933 648.272 630.966 648.272C634.998 648.272 638.268 645.002 638.268 640.97C638.268 636.937 634.998 633.668 630.966 633.668Z" fill="black" fill-opacity="0.42"/>
<path fill-rule="evenodd" clip-rule="evenodd" d="M630.966 697.035C626.933 697.035 623.663 700.304 623.663 704.337C623.663 708.369 626.933 711.639 630.966 711.639C634.998 711.639 638.268 708.369 638.268 704.337C638.268 700.304 634.998 697.035 630.966 697.035Z" fill="black" fill-opacity="0.42"/>
<path fill-rule="evenodd" clip-rule="evenodd" d="M630.966 760.401C626.933 760.401 623.663 763.67 623.663 767.703C623.663 771.736 626.933 775.005 630.966 775.005C634.998 775.005 638.268 771.736 638.268 767.703C638.268 763.67 634.998 760.401 630.966 760.401Z" fill="black" fill-opacity="0.42"/>
<path fill-rule="evenodd" clip-rule="evenodd" d="M630.966 823.767C626.933 823.767 623.663 827.037 623.663 831.069C623.663 835.102 626.933 838.371 630.966 838.371C634.998 838.371 638.268 835.102 638.268 831.069C638.268 827.037 634.998 823.767 630.966 823.767Z" fill="black" fill-opacity="0.42"/>
<path fill-rule="evenodd" clip-rule="evenodd" d="M630.966 887.133C626.933 887.133 623.663 890.403 623.663 894.435C623.663 898.468 626.933 901.737 630.966 901.737C634.998 901.737 638.268 898.468 638.268 894.435C638.268 890.403 634.998 887.133 630.966 887.133Z" fill="black" fill-opacity="0.42"/>
<path fill-rule="evenodd" clip-rule="evenodd" d="M630.966 940.5C626.933 940.5 623.663 943.77 623.663 947.802C623.663 951.835 626.933 955.104 630.966 955.104C634.998 955.104 638.268 951.835 638.268 947.802C638.268 943.77 634.998 940.5 630.966 940.5Z" fill="black" fill-opacity="0.42"/>
<path fill-rule="evenodd" clip-rule="evenodd" d="M630.966 993.866C626.933 993.866 623.663 997.136 623.663 1001.17C623.663 1005.2 626.933 1008.47 630.966 1008.47C634.998 1008.47 638.268 1005.2 638.268 1001.17C638.268 997.136 634.998 993.866 630.966 993.866Z" fill="black" fill-opacity="0.42"/>
<path fill-rule="evenodd" clip-rule="evenodd" d="M694.332 0.00488281C690.299 0.00488281 687.029 3.27388 687.029 7.30688C687.029 11.3389 690.299 14.6089 694.332 14.6089C698.364 14.6089 701.634 11.3389 701.634 7.30688C701.634 3.27388 698.364 0.00488281 694.332 0.00488281Z" fill="black" fill-opacity="0.42"/>
<path fill-rule="evenodd" clip-rule="evenodd" d="M694.332 63.3711C690.299 63.3711 687.029 66.6401 687.029 70.6731C687.029 74.7051 690.299 77.9751 694.332 77.9751C698.364 77.9751 701.634 74.7051 701.634 70.6731C701.634 66.6401 698.364 63.3711 694.332 63.3711Z" fill="black" fill-opacity="0.42"/>
<path fill-rule="evenodd" clip-rule="evenodd" d="M694.332 126.737C690.299 126.737 687.029 130.006 687.029 134.039C687.029 138.072 690.299 141.341 694.332 141.341C698.364 141.341 701.634 138.072 701.634 134.039C701.634 130.006 698.364 126.737 694.332 126.737Z" fill="black" fill-opacity="0.42"/>
<path fill-rule="evenodd" clip-rule="evenodd" d="M694.332 190.104C690.299 190.104 687.029 193.374 687.029 197.406C687.029 201.439 690.299 204.708 694.332 204.708C698.364 204.708 701.634 201.439 701.634 197.406C701.634 193.374 698.364 190.104 694.332 190.104Z" fill="black" fill-opacity="0.42"/>
<path fill-rule="evenodd" clip-rule="evenodd" d="M694.332 253.47C690.299 253.47 687.029 256.739 687.029 260.772C687.029 264.804 690.299 268.074 694.332 268.074C698.364 268.074 701.634 264.804 701.634 260.772C701.634 256.739 698.364 253.47 694.332 253.47Z" fill="black" fill-opacity="0.42"/>
<path fill-rule="evenodd" clip-rule="evenodd" d="M694.332 316.836C690.299 316.836 687.029 320.106 687.029 324.138C687.029 328.171 690.299 331.44 694.332 331.44C698.364 331.44 701.634 328.171 701.634 324.138C701.634 320.106 698.364 316.836 694.332 316.836Z" fill="black" fill-opacity="0.42"/>
<path fill-rule="evenodd" clip-rule="evenodd" d="M694.332 380.203C690.299 380.203 687.029 383.473 687.029 387.505C687.029 391.538 690.299 394.807 694.332 394.807C698.364 394.807 701.634 391.538 701.634 387.505C701.634 383.473 698.364 380.203 694.332 380.203Z" fill="black" fill-opacity="0.42"/>
<path fill-rule="evenodd" clip-rule="evenodd" d="M694.332 443.569C690.299 443.569 687.029 446.839 687.029 450.871C687.029 454.904 690.299 458.173 694.332 458.173C698.364 458.173 701.634 454.904 701.634 450.871C701.634 446.839 698.364 443.569 694.332 443.569Z" fill="black" fill-opacity="0.42"/>
<path fill-rule="evenodd" clip-rule="evenodd" d="M694.332 506.935C690.299 506.935 687.029 510.205 687.029 514.238C687.029 518.27 690.299 521.539 694.332 521.539C698.364 521.539 701.634 518.27 701.634 514.238C701.634 510.205 698.364 506.935 694.332 506.935Z" fill="black" fill-opacity="0.42"/>
<path fill-rule="evenodd" clip-rule="evenodd" d="M694.332 570.301C690.299 570.301 687.029 573.571 687.029 577.604C687.029 581.636 690.299 584.905 694.332 584.905C698.364 584.905 701.634 581.636 701.634 577.604C701.634 573.571 698.364 570.301 694.332 570.301Z" fill="black" fill-opacity="0.42"/>
<path fill-rule="evenodd" clip-rule="evenodd" d="M694.332 633.668C690.299 633.668 687.029 636.937 687.029 640.97C687.029 645.002 690.299 648.272 694.332 648.272C698.364 648.272 701.634 645.002 701.634 640.97C701.634 636.937 698.364 633.668 694.332 633.668Z" fill="black" fill-opacity="0.42"/>
<path fill-rule="evenodd" clip-rule="evenodd" d="M694.332 697.035C690.299 697.035 687.029 700.304 687.029 704.337C687.029 708.369 690.299 711.639 694.332 711.639C698.364 711.639 701.634 708.369 701.634 704.337C701.634 700.304 698.364 697.035 694.332 697.035Z" fill="black" fill-opacity="0.42"/>
<path fill-rule="evenodd" clip-rule="evenodd" d="M694.332 760.401C690.299 760.401 687.029 763.67 687.029 767.703C687.029 771.736 690.299 775.005 694.332 775.005C698.364 775.005 701.634 771.736 701.634 767.703C701.634 763.67 698.364 760.401 694.332 760.401Z" fill="black" fill-opacity="0.42"/>
<path fill-rule="evenodd" clip-rule="evenodd" d="M694.332 823.767C690.299 823.767 687.029 827.037 687.029 831.069C687.029 835.102 690.299 838.371 694.332 838.371C698.364 838.371 701.634 835.102 701.634 831.069C701.634 827.037 698.364 823.767 694.332 823.767Z" fill="black" fill-opacity="0.42"/>
<path fill-rule="evenodd" clip-rule="evenodd" d="M694.332 887.133C690.299 887.133 687.029 890.403 687.029 894.435C687.029 898.468 690.299 901.737 694.332 901.737C698.364 901.737 701.634 898.468 701.634 894.435C701.634 890.403 698.364 887.133 694.332 887.133Z" fill="black" fill-opacity="0.42"/>
<path fill-rule="evenodd" clip-rule="evenodd" d="M694.332 940.5C690.299 940.5 687.029 943.77 687.029 947.802C687.029 951.835 690.299 955.104 694.332 955.104C698.364 955.104 701.634 951.835 701.634 947.802C701.634 943.77 698.364 940.5 694.332 940.5Z" fill="black" fill-opacity="0.42"/>
<path fill-rule="evenodd" clip-rule="evenodd" d="M694.332 993.866C690.299 993.866 687.029 997.136 687.029 1001.17C687.029 1005.2 690.299 1008.47 694.332 1008.47C698.364 1008.47 701.634 1005.2 701.634 1001.17C701.634 997.136 698.364 993.866 694.332 993.866Z" fill="black" fill-opacity="0.42"/>
<path fill-rule="evenodd" clip-rule="evenodd" d="M757.698 0.00488281C753.665 0.00488281 750.396 3.27388 750.396 7.30688C750.396 11.3389 753.665 14.6089 757.698 14.6089C761.73 14.6089 765 11.3389 765 7.30688C765 3.27388 761.73 0.00488281 757.698 0.00488281Z" fill="black" fill-opacity="0.42"/>
<path fill-rule="evenodd" clip-rule="evenodd" d="M757.698 63.3711C753.665 63.3711 750.396 66.6401 750.396 70.6731C750.396 74.7051 753.665 77.9751 757.698 77.9751C761.73 77.9751 765 74.7051 765 70.6731C765 66.6401 761.73 63.3711 757.698 63.3711Z" fill="black" fill-opacity="0.42"/>
<path fill-rule="evenodd" clip-rule="evenodd" d="M757.698 126.737C753.665 126.737 750.396 130.006 750.396 134.039C750.396 138.072 753.665 141.341 757.698 141.341C761.73 141.341 765 138.072 765 134.039C765 130.006 761.73 126.737 757.698 126.737Z" fill="black" fill-opacity="0.42"/>
<path fill-rule="evenodd" clip-rule="evenodd" d="M757.698 190.104C753.665 190.104 750.396 193.374 750.396 197.406C750.396 201.439 753.665 204.708 757.698 204.708C761.73 204.708 765 201.439 765 197.406C765 193.374 761.73 190.104 757.698 190.104Z" fill="black" fill-opacity="0.42"/>
<path fill-rule="evenodd" clip-rule="evenodd" d="M757.698 253.47C753.665 253.47 750.396 256.739 750.396 260.772C750.396 264.804 753.665 268.074 757.698 268.074C761.73 268.074 765 264.804 765 260.772C765 256.739 761.73 253.47 757.698 253.47Z" fill="black" fill-opacity="0.42"/>
<path fill-rule="evenodd" clip-rule="evenodd" d="M757.698 316.836C753.665 316.836 750.396 320.106 750.396 324.138C750.396 328.171 753.665 331.44 757.698 331.44C761.73 331.44 765 328.171 765 324.138C765 320.106 761.73 316.836 757.698 316.836Z" fill="black" fill-opacity="0.42"/>
<path fill-rule="evenodd" clip-rule="evenodd" d="M757.698 380.203C753.665 380.203 750.396 383.473 750.396 387.505C750.396 391.538 753.665 394.807 757.698 394.807C761.73 394.807 765 391.538 765 387.505C765 383.473 761.73 380.203 757.698 380.203Z" fill="black" fill-opacity="0.42"/>
<path fill-rule="evenodd" clip-rule="evenodd" d="M757.698 443.569C753.665 443.569 750.396 446.839 750.396 450.871C750.396 454.904 753.665 458.173 757.698 458.173C761.73 458.173 765 454.904 765 450.871C765 446.839 761.73 443.569 757.698 443.569Z" fill="black" fill-opacity="0.42"/>
<path fill-rule="evenodd" clip-rule="evenodd" d="M757.698 506.935C753.665 506.935 750.396 510.205 750.396 514.238C750.396 518.27 753.665 521.539 757.698 521.539C761.73 521.539 765 518.27 765 514.238C765 510.205 761.73 506.935 757.698 506.935Z" fill="black" fill-opacity="0.42"/>
<path fill-rule="evenodd" clip-rule="evenodd" d="M757.698 570.301C753.665 570.301 750.396 573.571 750.396 577.604C750.396 581.636 753.665 584.905 757.698 584.905C761.73 584.905 765 581.636 765 577.604C765 573.571 761.73 570.301 757.698 570.301Z" fill="black" fill-opacity="0.42"/>
<path fill-rule="evenodd" clip-rule="evenodd" d="M757.698 633.668C753.665 633.668 750.396 636.937 750.396 640.97C750.396 645.002 753.665 648.272 757.698 648.272C761.73 648.272 765 645.002 765 640.97C765 636.937 761.73 633.668 757.698 633.668Z" fill="black" fill-opacity="0.42"/>
<path fill-rule="evenodd" clip-rule="evenodd" d="M757.698 697.035C753.665 697.035 750.396 700.304 750.396 704.337C750.396 708.369 753.665 711.639 757.698 711.639C761.73 711.639 765 708.369 765 704.337C765 700.304 761.73 697.035 757.698 697.035Z" fill="black" fill-opacity="0.42"/>
<path fill-rule="evenodd" clip-rule="evenodd" d="M757.698 760.401C753.665 760.401 750.396 763.67 750.396 767.703C750.396 771.736 753.665 775.005 757.698 775.005C761.73 775.005 765 771.736 765 767.703C765 763.67 761.73 760.401 757.698 760.401Z" fill="black" fill-opacity="0.42"/>
<path fill-rule="evenodd" clip-rule="evenodd" d="M757.698 823.767C753.665 823.767 750.396 827.037 750.396 831.069C750.396 835.102 753.665 838.371 757.698 838.371C761.73 838.371 765 835.102 765 831.069C765 827.037 761.73 823.767 757.698 823.767Z" fill="black" fill-opacity="0.42"/>
<path fill-rule="evenodd" clip-rule="evenodd" d="M757.698 887.133C753.665 887.133 750.396 890.403 750.396 894.435C750.396 898.468 753.665 901.737 757.698 901.737C761.73 901.737 765 898.468 765 894.435C765 890.403 761.73 887.133 757.698 887.133Z" fill="black" fill-opacity="0.42"/>
<path fill-rule="evenodd" clip-rule="evenodd" d="M757.698 940.5C753.665 940.5 750.396 943.77 750.396 947.802C750.396 951.835 753.665 955.104 757.698 955.104C761.73 955.104 765 951.835 765 947.802C765 943.77 761.73 940.5 757.698 940.5Z" fill="black" fill-opacity="0.42"/>
<path fill-rule="evenodd" clip-rule="evenodd" d="M757.698 993.866C753.665 993.866 750.396 997.136 750.396 1001.17C750.396 1005.2 753.665 1008.47 757.698 1008.47C761.73 1008.47 765 1005.2 765 1001.17C765 997.136 761.73 993.866 757.698 993.866Z" fill="black" fill-opacity="0.42"/>
</g>
</svg>
