<svg width="775" height="1009" viewBox="0 0 775 1009" fill="none" xmlns="http://www.w3.org/2000/svg">
<g opacity="0.15332">
<path fill-rule="evenodd" clip-rule="evenodd" d="M7.30176 0.00488281C3.26876 0.00488281 -0.000244141 3.27388 -0.000244141 7.30688C-0.000244141 11.3389 3.26876 14.6089 7.30176 14.6089C11.3348 14.6089 14.6038 11.3389 14.6038 7.30688C14.6038 3.27388 11.3348 0.00488281 7.30176 0.00488281Z" fill="black" fill-opacity="0.42"/>
<path fill-rule="evenodd" clip-rule="evenodd" d="M7.30176 63.3711C3.26876 63.3711 -0.000244141 66.6401 -0.000244141 70.6731C-0.000244141 74.7051 3.26876 77.9751 7.30176 77.9751C11.3348 77.9751 14.6038 74.7051 14.6038 70.6731C14.6038 66.6401 11.3348 63.3711 7.30176 63.3711Z" fill="black" fill-opacity="0.42"/>
<path fill-rule="evenodd" clip-rule="evenodd" d="M7.30176 126.737C3.26876 126.737 -0.000244141 130.006 -0.000244141 134.039C-0.000244141 138.072 3.26876 141.341 7.30176 141.341C11.3348 141.341 14.6038 138.072 14.6038 134.039C14.6038 130.006 11.3348 126.737 7.30176 126.737Z" fill="black" fill-opacity="0.42"/>
<path fill-rule="evenodd" clip-rule="evenodd" d="M7.30176 190.104C3.26876 190.104 -0.000244141 193.374 -0.000244141 197.406C-0.000244141 201.439 3.26876 204.708 7.30176 204.708C11.3348 204.708 14.6038 201.439 14.6038 197.406C14.6038 193.374 11.3348 190.104 7.30176 190.104Z" fill="black" fill-opacity="0.42"/>
<path fill-rule="evenodd" clip-rule="evenodd" d="M7.30176 253.47C3.26876 253.47 -0.000244141 256.739 -0.000244141 260.772C-0.000244141 264.804 3.26876 268.074 7.30176 268.074C11.3348 268.074 14.6038 264.804 14.6038 260.772C14.6038 256.739 11.3348 253.47 7.30176 253.47Z" fill="black" fill-opacity="0.42"/>
<path fill-rule="evenodd" clip-rule="evenodd" d="M7.30176 316.836C3.26876 316.836 -0.000244141 320.106 -0.000244141 324.138C-0.000244141 328.171 3.26876 331.44 7.30176 331.44C11.3348 331.44 14.6038 328.171 14.6038 324.138C14.6038 320.106 11.3348 316.836 7.30176 316.836Z" fill="black" fill-opacity="0.42"/>
<path fill-rule="evenodd" clip-rule="evenodd" d="M7.30176 380.203C3.26876 380.203 -0.000244141 383.473 -0.000244141 387.505C-0.000244141 391.538 3.26876 394.807 7.30176 394.807C11.3348 394.807 14.6038 391.538 14.6038 387.505C14.6038 383.473 11.3348 380.203 7.30176 380.203Z" fill="black" fill-opacity="0.42"/>
<path fill-rule="evenodd" clip-rule="evenodd" d="M7.30176 443.569C3.26876 443.569 -0.000244141 446.839 -0.000244141 450.871C-0.000244141 454.904 3.26876 458.173 7.30176 458.173C11.3348 458.173 14.6038 454.904 14.6038 450.871C14.6038 446.839 11.3348 443.569 7.30176 443.569Z" fill="black" fill-opacity="0.42"/>
<path fill-rule="evenodd" clip-rule="evenodd" d="M7.30176 506.935C3.26876 506.935 -0.000244141 510.205 -0.000244141 514.238C-0.000244141 518.27 3.26876 521.539 7.30176 521.539C11.3348 521.539 14.6038 518.27 14.6038 514.238C14.6038 510.205 11.3348 506.935 7.30176 506.935Z" fill="black" fill-opacity="0.42"/>
<path fill-rule="evenodd" clip-rule="evenodd" d="M7.30176 570.301C3.26876 570.301 -0.000244141 573.571 -0.000244141 577.604C-0.000244141 581.636 3.26876 584.905 7.30176 584.905C11.3348 584.905 14.6038 581.636 14.6038 577.604C14.6038 573.571 11.3348 570.301 7.30176 570.301Z" fill="black" fill-opacity="0.42"/>
<path fill-rule="evenodd" clip-rule="evenodd" d="M7.30176 633.668C3.26876 633.668 -0.000244141 636.937 -0.000244141 640.97C-0.000244141 645.002 3.26876 648.272 7.30176 648.272C11.3348 648.272 14.6038 645.002 14.6038 640.97C14.6038 636.937 11.3348 633.668 7.30176 633.668Z" fill="black" fill-opacity="0.42"/>
<path fill-rule="evenodd" clip-rule="evenodd" d="M7.30176 697.035C3.26876 697.035 -0.000244141 700.304 -0.000244141 704.337C-0.000244141 708.369 3.26876 711.639 7.30176 711.639C11.3348 711.639 14.6038 708.369 14.6038 704.337C14.6038 700.304 11.3348 697.035 7.30176 697.035Z" fill="black" fill-opacity="0.42"/>
<path fill-rule="evenodd" clip-rule="evenodd" d="M7.30176 760.401C3.26876 760.401 -0.000244141 763.67 -0.000244141 767.703C-0.000244141 771.736 3.26876 775.005 7.30176 775.005C11.3348 775.005 14.6038 771.736 14.6038 767.703C14.6038 763.67 11.3348 760.401 7.30176 760.401Z" fill="black" fill-opacity="0.42"/>
<path fill-rule="evenodd" clip-rule="evenodd" d="M7.30176 823.767C3.26876 823.767 -0.000244141 827.037 -0.000244141 831.069C-0.000244141 835.102 3.26876 838.371 7.30176 838.371C11.3348 838.371 14.6038 835.102 14.6038 831.069C14.6038 827.037 11.3348 823.767 7.30176 823.767Z" fill="black" fill-opacity="0.42"/>
<path fill-rule="evenodd" clip-rule="evenodd" d="M7.30176 887.133C3.26876 887.133 -0.000244141 890.403 -0.000244141 894.435C-0.000244141 898.468 3.26876 901.737 7.30176 901.737C11.3348 901.737 14.6038 898.468 14.6038 894.435C14.6038 890.403 11.3348 887.133 7.30176 887.133Z" fill="black" fill-opacity="0.42"/>
<path fill-rule="evenodd" clip-rule="evenodd" d="M7.30176 940.5C3.26876 940.5 -0.000244141 943.77 -0.000244141 947.802C-0.000244141 951.835 3.26876 955.104 7.30176 955.104C11.3348 955.104 14.6038 951.835 14.6038 947.802C14.6038 943.77 11.3348 940.5 7.30176 940.5Z" fill="black" fill-opacity="0.42"/>
<path fill-rule="evenodd" clip-rule="evenodd" d="M7.30176 993.866C3.26876 993.866 -0.000244141 997.136 -0.000244141 1001.17C-0.000244141 1005.2 3.26876 1008.47 7.30176 1008.47C11.3348 1008.47 14.6038 1005.2 14.6038 1001.17C14.6038 997.136 11.3348 993.866 7.30176 993.866Z" fill="black" fill-opacity="0.42"/>
<path fill-rule="evenodd" clip-rule="evenodd" d="M70.6685 0.00488281C66.6355 0.00488281 63.3665 3.27388 63.3665 7.30688C63.3665 11.3389 66.6355 14.6089 70.6685 14.6089C74.7015 14.6089 77.9705 11.3389 77.9705 7.30688C77.9705 3.27388 74.7015 0.00488281 70.6685 0.00488281Z" fill="black" fill-opacity="0.42"/>
<path fill-rule="evenodd" clip-rule="evenodd" d="M70.6685 63.3711C66.6355 63.3711 63.3665 66.6401 63.3665 70.6731C63.3665 74.7051 66.6355 77.9751 70.6685 77.9751C74.7015 77.9751 77.9705 74.7051 77.9705 70.6731C77.9705 66.6401 74.7015 63.3711 70.6685 63.3711Z" fill="black" fill-opacity="0.42"/>
<path fill-rule="evenodd" clip-rule="evenodd" d="M70.6685 126.737C66.6355 126.737 63.3665 130.006 63.3665 134.039C63.3665 138.072 66.6355 141.341 70.6685 141.341C74.7015 141.341 77.9705 138.072 77.9705 134.039C77.9705 130.006 74.7015 126.737 70.6685 126.737Z" fill="black" fill-opacity="0.42"/>
<path fill-rule="evenodd" clip-rule="evenodd" d="M70.6685 190.104C66.6355 190.104 63.3665 193.374 63.3665 197.406C63.3665 201.439 66.6355 204.708 70.6685 204.708C74.7015 204.708 77.9705 201.439 77.9705 197.406C77.9705 193.374 74.7015 190.104 70.6685 190.104Z" fill="black" fill-opacity="0.42"/>
<path fill-rule="evenodd" clip-rule="evenodd" d="M70.6685 253.47C66.6355 253.47 63.3665 256.739 63.3665 260.772C63.3665 264.804 66.6355 268.074 70.6685 268.074C74.7015 268.074 77.9705 264.804 77.9705 260.772C77.9705 256.739 74.7015 253.47 70.6685 253.47Z" fill="black" fill-opacity="0.42"/>
<path fill-rule="evenodd" clip-rule="evenodd" d="M70.6685 316.836C66.6355 316.836 63.3665 320.106 63.3665 324.138C63.3665 328.171 66.6355 331.44 70.6685 331.44C74.7015 331.44 77.9705 328.171 77.9705 324.138C77.9705 320.106 74.7015 316.836 70.6685 316.836Z" fill="black" fill-opacity="0.42"/>
<path fill-rule="evenodd" clip-rule="evenodd" d="M70.6685 380.203C66.6355 380.203 63.3665 383.473 63.3665 387.505C63.3665 391.538 66.6355 394.807 70.6685 394.807C74.7015 394.807 77.9705 391.538 77.9705 387.505C77.9705 383.473 74.7015 380.203 70.6685 380.203Z" fill="black" fill-opacity="0.42"/>
<path fill-rule="evenodd" clip-rule="evenodd" d="M70.6685 443.569C66.6355 443.569 63.3665 446.839 63.3665 450.871C63.3665 454.904 66.6355 458.173 70.6685 458.173C74.7015 458.173 77.9705 454.904 77.9705 450.871C77.9705 446.839 74.7015 443.569 70.6685 443.569Z" fill="black" fill-opacity="0.42"/>
<path fill-rule="evenodd" clip-rule="evenodd" d="M70.6685 506.935C66.6355 506.935 63.3665 510.205 63.3665 514.238C63.3665 518.27 66.6355 521.539 70.6685 521.539C74.7015 521.539 77.9705 518.27 77.9705 514.238C77.9705 510.205 74.7015 506.935 70.6685 506.935Z" fill="black" fill-opacity="0.42"/>
<path fill-rule="evenodd" clip-rule="evenodd" d="M70.6685 570.301C66.6355 570.301 63.3665 573.571 63.3665 577.604C63.3665 581.636 66.6355 584.905 70.6685 584.905C74.7015 584.905 77.9705 581.636 77.9705 577.604C77.9705 573.571 74.7015 570.301 70.6685 570.301Z" fill="black" fill-opacity="0.42"/>
<path fill-rule="evenodd" clip-rule="evenodd" d="M70.6685 633.668C66.6355 633.668 63.3665 636.937 63.3665 640.97C63.3665 645.002 66.6355 648.272 70.6685 648.272C74.7015 648.272 77.9705 645.002 77.9705 640.97C77.9705 636.937 74.7015 633.668 70.6685 633.668Z" fill="black" fill-opacity="0.42"/>
<path fill-rule="evenodd" clip-rule="evenodd" d="M70.6685 697.035C66.6355 697.035 63.3665 700.304 63.3665 704.337C63.3665 708.369 66.6355 711.639 70.6685 711.639C74.7015 711.639 77.9705 708.369 77.9705 704.337C77.9705 700.304 74.7015 697.035 70.6685 697.035Z" fill="black" fill-opacity="0.42"/>
<path fill-rule="evenodd" clip-rule="evenodd" d="M70.6685 760.401C66.6355 760.401 63.3665 763.67 63.3665 767.703C63.3665 771.736 66.6355 775.005 70.6685 775.005C74.7015 775.005 77.9705 771.736 77.9705 767.703C77.9705 763.67 74.7015 760.401 70.6685 760.401Z" fill="black" fill-opacity="0.42"/>
<path fill-rule="evenodd" clip-rule="evenodd" d="M70.6685 823.767C66.6355 823.767 63.3665 827.037 63.3665 831.069C63.3665 835.102 66.6355 838.371 70.6685 838.371C74.7015 838.371 77.9705 835.102 77.9705 831.069C77.9705 827.037 74.7015 823.767 70.6685 823.767Z" fill="black" fill-opacity="0.42"/>
<path fill-rule="evenodd" clip-rule="evenodd" d="M70.6685 887.133C66.6355 887.133 63.3665 890.403 63.3665 894.435C63.3665 898.468 66.6355 901.737 70.6685 901.737C74.7015 901.737 77.9705 898.468 77.9705 894.435C77.9705 890.403 74.7015 887.133 70.6685 887.133Z" fill="black" fill-opacity="0.42"/>
<path fill-rule="evenodd" clip-rule="evenodd" d="M70.6685 940.5C66.6355 940.5 63.3665 943.77 63.3665 947.802C63.3665 951.835 66.6355 955.104 70.6685 955.104C74.7015 955.104 77.9705 951.835 77.9705 947.802C77.9705 943.77 74.7015 940.5 70.6685 940.5Z" fill="black" fill-opacity="0.42"/>
<path fill-rule="evenodd" clip-rule="evenodd" d="M70.6685 993.866C66.6355 993.866 63.3665 997.136 63.3665 1001.17C63.3665 1005.2 66.6355 1008.47 70.6685 1008.47C74.7015 1008.47 77.9705 1005.2 77.9705 1001.17C77.9705 997.136 74.7015 993.866 70.6685 993.866Z" fill="black" fill-opacity="0.42"/>
<path fill-rule="evenodd" clip-rule="evenodd" d="M134.035 0.00488281C130.002 0.00488281 126.733 3.27388 126.733 7.30688C126.733 11.3389 130.002 14.6089 134.035 14.6089C138.068 14.6089 141.337 11.3389 141.337 7.30688C141.337 3.27388 138.068 0.00488281 134.035 0.00488281Z" fill="black" fill-opacity="0.42"/>
<path fill-rule="evenodd" clip-rule="evenodd" d="M134.035 63.3711C130.002 63.3711 126.733 66.6401 126.733 70.6731C126.733 74.7051 130.002 77.9751 134.035 77.9751C138.068 77.9751 141.337 74.7051 141.337 70.6731C141.337 66.6401 138.068 63.3711 134.035 63.3711Z" fill="black" fill-opacity="0.42"/>
<path fill-rule="evenodd" clip-rule="evenodd" d="M134.035 126.737C130.002 126.737 126.733 130.006 126.733 134.039C126.733 138.072 130.002 141.341 134.035 141.341C138.068 141.341 141.337 138.072 141.337 134.039C141.337 130.006 138.068 126.737 134.035 126.737Z" fill="black" fill-opacity="0.42"/>
<path fill-rule="evenodd" clip-rule="evenodd" d="M134.035 190.104C130.002 190.104 126.733 193.374 126.733 197.406C126.733 201.439 130.002 204.708 134.035 204.708C138.068 204.708 141.337 201.439 141.337 197.406C141.337 193.374 138.068 190.104 134.035 190.104Z" fill="black" fill-opacity="0.42"/>
<path fill-rule="evenodd" clip-rule="evenodd" d="M134.035 253.47C130.002 253.47 126.733 256.739 126.733 260.772C126.733 264.804 130.002 268.074 134.035 268.074C138.068 268.074 141.337 264.804 141.337 260.772C141.337 256.739 138.068 253.47 134.035 253.47Z" fill="black" fill-opacity="0.42"/>
<path fill-rule="evenodd" clip-rule="evenodd" d="M134.035 316.836C130.002 316.836 126.733 320.106 126.733 324.138C126.733 328.171 130.002 331.44 134.035 331.44C138.068 331.44 141.337 328.171 141.337 324.138C141.337 320.106 138.068 316.836 134.035 316.836Z" fill="black" fill-opacity="0.42"/>
<path fill-rule="evenodd" clip-rule="evenodd" d="M134.035 380.203C130.002 380.203 126.733 383.473 126.733 387.505C126.733 391.538 130.002 394.807 134.035 394.807C138.068 394.807 141.337 391.538 141.337 387.505C141.337 383.473 138.068 380.203 134.035 380.203Z" fill="black" fill-opacity="0.42"/>
<path fill-rule="evenodd" clip-rule="evenodd" d="M134.035 443.569C130.002 443.569 126.733 446.839 126.733 450.871C126.733 454.904 130.002 458.173 134.035 458.173C138.068 458.173 141.337 454.904 141.337 450.871C141.337 446.839 138.068 443.569 134.035 443.569Z" fill="black" fill-opacity="0.42"/>
<path fill-rule="evenodd" clip-rule="evenodd" d="M134.035 506.935C130.002 506.935 126.733 510.205 126.733 514.238C126.733 518.27 130.002 521.539 134.035 521.539C138.068 521.539 141.337 518.27 141.337 514.238C141.337 510.205 138.068 506.935 134.035 506.935Z" fill="black" fill-opacity="0.42"/>
<path fill-rule="evenodd" clip-rule="evenodd" d="M134.035 570.301C130.002 570.301 126.733 573.571 126.733 577.604C126.733 581.636 130.002 584.905 134.035 584.905C138.068 584.905 141.337 581.636 141.337 577.604C141.337 573.571 138.068 570.301 134.035 570.301Z" fill="black" fill-opacity="0.42"/>
<path fill-rule="evenodd" clip-rule="evenodd" d="M134.035 633.668C130.002 633.668 126.733 636.937 126.733 640.97C126.733 645.002 130.002 648.272 134.035 648.272C138.068 648.272 141.337 645.002 141.337 640.97C141.337 636.937 138.068 633.668 134.035 633.668Z" fill="black" fill-opacity="0.42"/>
<path fill-rule="evenodd" clip-rule="evenodd" d="M134.035 697.035C130.002 697.035 126.733 700.304 126.733 704.337C126.733 708.369 130.002 711.639 134.035 711.639C138.068 711.639 141.337 708.369 141.337 704.337C141.337 700.304 138.068 697.035 134.035 697.035Z" fill="black" fill-opacity="0.42"/>
<path fill-rule="evenodd" clip-rule="evenodd" d="M134.035 760.401C130.002 760.401 126.733 763.67 126.733 767.703C126.733 771.736 130.002 775.005 134.035 775.005C138.068 775.005 141.337 771.736 141.337 767.703C141.337 763.67 138.068 760.401 134.035 760.401Z" fill="black" fill-opacity="0.42"/>
<path fill-rule="evenodd" clip-rule="evenodd" d="M134.035 823.767C130.002 823.767 126.733 827.037 126.733 831.069C126.733 835.102 130.002 838.371 134.035 838.371C138.068 838.371 141.337 835.102 141.337 831.069C141.337 827.037 138.068 823.767 134.035 823.767Z" fill="black" fill-opacity="0.42"/>
<path fill-rule="evenodd" clip-rule="evenodd" d="M134.035 887.133C130.002 887.133 126.733 890.403 126.733 894.435C126.733 898.468 130.002 901.737 134.035 901.737C138.068 901.737 141.337 898.468 141.337 894.435C141.337 890.403 138.068 887.133 134.035 887.133Z" fill="black" fill-opacity="0.42"/>
<path fill-rule="evenodd" clip-rule="evenodd" d="M134.035 940.5C130.002 940.5 126.733 943.77 126.733 947.802C126.733 951.835 130.002 955.104 134.035 955.104C138.068 955.104 141.337 951.835 141.337 947.802C141.337 943.77 138.068 940.5 134.035 940.5Z" fill="black" fill-opacity="0.42"/>
<path fill-rule="evenodd" clip-rule="evenodd" d="M134.035 993.866C130.002 993.866 126.733 997.136 126.733 1001.17C126.733 1005.2 130.002 1008.47 134.035 1008.47C138.068 1008.47 141.337 1005.2 141.337 1001.17C141.337 997.136 138.068 993.866 134.035 993.866Z" fill="black" fill-opacity="0.42"/>
<path fill-rule="evenodd" clip-rule="evenodd" d="M197.401 0.00488281C193.368 0.00488281 190.099 3.27388 190.099 7.30688C190.099 11.3389 193.368 14.6089 197.401 14.6089C201.434 14.6089 204.703 11.3389 204.703 7.30688C204.703 3.27388 201.434 0.00488281 197.401 0.00488281Z" fill="black" fill-opacity="0.42"/>
<path fill-rule="evenodd" clip-rule="evenodd" d="M197.401 63.3711C193.368 63.3711 190.099 66.6401 190.099 70.6731C190.099 74.7051 193.368 77.9751 197.401 77.9751C201.434 77.9751 204.703 74.7051 204.703 70.6731C204.703 66.6401 201.434 63.3711 197.401 63.3711Z" fill="black" fill-opacity="0.42"/>
<path fill-rule="evenodd" clip-rule="evenodd" d="M197.401 126.737C193.368 126.737 190.099 130.006 190.099 134.039C190.099 138.072 193.368 141.341 197.401 141.341C201.434 141.341 204.703 138.072 204.703 134.039C204.703 130.006 201.434 126.737 197.401 126.737Z" fill="black" fill-opacity="0.42"/>
<path fill-rule="evenodd" clip-rule="evenodd" d="M197.401 190.104C193.368 190.104 190.099 193.374 190.099 197.406C190.099 201.439 193.368 204.708 197.401 204.708C201.434 204.708 204.703 201.439 204.703 197.406C204.703 193.374 201.434 190.104 197.401 190.104Z" fill="black" fill-opacity="0.42"/>
<path fill-rule="evenodd" clip-rule="evenodd" d="M197.401 253.47C193.368 253.47 190.099 256.739 190.099 260.772C190.099 264.804 193.368 268.074 197.401 268.074C201.434 268.074 204.703 264.804 204.703 260.772C204.703 256.739 201.434 253.47 197.401 253.47Z" fill="black" fill-opacity="0.42"/>
<path fill-rule="evenodd" clip-rule="evenodd" d="M197.401 316.836C193.368 316.836 190.099 320.106 190.099 324.138C190.099 328.171 193.368 331.44 197.401 331.44C201.434 331.44 204.703 328.171 204.703 324.138C204.703 320.106 201.434 316.836 197.401 316.836Z" fill="black" fill-opacity="0.42"/>
<path fill-rule="evenodd" clip-rule="evenodd" d="M197.401 380.203C193.368 380.203 190.099 383.473 190.099 387.505C190.099 391.538 193.368 394.807 197.401 394.807C201.434 394.807 204.703 391.538 204.703 387.505C204.703 383.473 201.434 380.203 197.401 380.203Z" fill="black" fill-opacity="0.42"/>
<path fill-rule="evenodd" clip-rule="evenodd" d="M197.401 443.569C193.368 443.569 190.099 446.839 190.099 450.871C190.099 454.904 193.368 458.173 197.401 458.173C201.434 458.173 204.703 454.904 204.703 450.871C204.703 446.839 201.434 443.569 197.401 443.569Z" fill="black" fill-opacity="0.42"/>
<path fill-rule="evenodd" clip-rule="evenodd" d="M197.401 506.935C193.368 506.935 190.099 510.205 190.099 514.238C190.099 518.27 193.368 521.539 197.401 521.539C201.434 521.539 204.703 518.27 204.703 514.238C204.703 510.205 201.434 506.935 197.401 506.935Z" fill="black" fill-opacity="0.42"/>
<path fill-rule="evenodd" clip-rule="evenodd" d="M197.401 570.301C193.368 570.301 190.099 573.571 190.099 577.604C190.099 581.636 193.368 584.905 197.401 584.905C201.434 584.905 204.703 581.636 204.703 577.604C204.703 573.571 201.434 570.301 197.401 570.301Z" fill="black" fill-opacity="0.42"/>
<path fill-rule="evenodd" clip-rule="evenodd" d="M197.401 633.668C193.368 633.668 190.099 636.937 190.099 640.97C190.099 645.002 193.368 648.272 197.401 648.272C201.434 648.272 204.703 645.002 204.703 640.97C204.703 636.937 201.434 633.668 197.401 633.668Z" fill="black" fill-opacity="0.42"/>
<path fill-rule="evenodd" clip-rule="evenodd" d="M197.401 697.035C193.368 697.035 190.099 700.304 190.099 704.337C190.099 708.369 193.368 711.639 197.401 711.639C201.434 711.639 204.703 708.369 204.703 704.337C204.703 700.304 201.434 697.035 197.401 697.035Z" fill="black" fill-opacity="0.42"/>
<path fill-rule="evenodd" clip-rule="evenodd" d="M197.401 760.401C193.368 760.401 190.099 763.67 190.099 767.703C190.099 771.736 193.368 775.005 197.401 775.005C201.434 775.005 204.703 771.736 204.703 767.703C204.703 763.67 201.434 760.401 197.401 760.401Z" fill="black" fill-opacity="0.42"/>
<path fill-rule="evenodd" clip-rule="evenodd" d="M197.401 823.767C193.368 823.767 190.099 827.037 190.099 831.069C190.099 835.102 193.368 838.371 197.401 838.371C201.434 838.371 204.703 835.102 204.703 831.069C204.703 827.037 201.434 823.767 197.401 823.767Z" fill="black" fill-opacity="0.42"/>
<path fill-rule="evenodd" clip-rule="evenodd" d="M197.401 887.133C193.368 887.133 190.099 890.403 190.099 894.435C190.099 898.468 193.368 901.737 197.401 901.737C201.434 901.737 204.703 898.468 204.703 894.435C204.703 890.403 201.434 887.133 197.401 887.133Z" fill="black" fill-opacity="0.42"/>
<path fill-rule="evenodd" clip-rule="evenodd" d="M197.401 940.5C193.368 940.5 190.099 943.77 190.099 947.802C190.099 951.835 193.368 955.104 197.401 955.104C201.434 955.104 204.703 951.835 204.703 947.802C204.703 943.77 201.434 940.5 197.401 940.5Z" fill="black" fill-opacity="0.42"/>
<path fill-rule="evenodd" clip-rule="evenodd" d="M197.401 993.866C193.368 993.866 190.099 997.136 190.099 1001.17C190.099 1005.2 193.368 1008.47 197.401 1008.47C201.434 1008.47 204.703 1005.2 204.703 1001.17C204.703 997.136 201.434 993.866 197.401 993.866Z" fill="black" fill-opacity="0.42"/>
<path fill-rule="evenodd" clip-rule="evenodd" d="M260.767 0.00488281C256.734 0.00488281 253.465 3.27388 253.465 7.30688C253.465 11.3389 256.734 14.6089 260.767 14.6089C264.8 14.6089 268.069 11.3389 268.069 7.30688C268.069 3.27388 264.8 0.00488281 260.767 0.00488281Z" fill="black" fill-opacity="0.42"/>
<path fill-rule="evenodd" clip-rule="evenodd" d="M260.767 63.3711C256.734 63.3711 253.465 66.6401 253.465 70.6731C253.465 74.7051 256.734 77.9751 260.767 77.9751C264.8 77.9751 268.069 74.7051 268.069 70.6731C268.069 66.6401 264.8 63.3711 260.767 63.3711Z" fill="black" fill-opacity="0.42"/>
<path fill-rule="evenodd" clip-rule="evenodd" d="M260.767 126.737C256.734 126.737 253.465 130.006 253.465 134.039C253.465 138.072 256.734 141.341 260.767 141.341C264.8 141.341 268.069 138.072 268.069 134.039C268.069 130.006 264.8 126.737 260.767 126.737Z" fill="black" fill-opacity="0.42"/>
<path fill-rule="evenodd" clip-rule="evenodd" d="M260.767 190.104C256.734 190.104 253.465 193.374 253.465 197.406C253.465 201.439 256.734 204.708 260.767 204.708C264.8 204.708 268.069 201.439 268.069 197.406C268.069 193.374 264.8 190.104 260.767 190.104Z" fill="black" fill-opacity="0.42"/>
<path fill-rule="evenodd" clip-rule="evenodd" d="M260.767 253.47C256.734 253.47 253.465 256.739 253.465 260.772C253.465 264.804 256.734 268.074 260.767 268.074C264.8 268.074 268.069 264.804 268.069 260.772C268.069 256.739 264.8 253.47 260.767 253.47Z" fill="black" fill-opacity="0.42"/>
<path fill-rule="evenodd" clip-rule="evenodd" d="M260.767 316.836C256.734 316.836 253.465 320.106 253.465 324.138C253.465 328.171 256.734 331.44 260.767 331.44C264.8 331.44 268.069 328.171 268.069 324.138C268.069 320.106 264.8 316.836 260.767 316.836Z" fill="black" fill-opacity="0.42"/>
<path fill-rule="evenodd" clip-rule="evenodd" d="M260.767 380.203C256.734 380.203 253.465 383.473 253.465 387.505C253.465 391.538 256.734 394.807 260.767 394.807C264.8 394.807 268.069 391.538 268.069 387.505C268.069 383.473 264.8 380.203 260.767 380.203Z" fill="black" fill-opacity="0.42"/>
<path fill-rule="evenodd" clip-rule="evenodd" d="M260.767 443.569C256.734 443.569 253.465 446.839 253.465 450.871C253.465 454.904 256.734 458.173 260.767 458.173C264.8 458.173 268.069 454.904 268.069 450.871C268.069 446.839 264.8 443.569 260.767 443.569Z" fill="black" fill-opacity="0.42"/>
<path fill-rule="evenodd" clip-rule="evenodd" d="M260.767 506.935C256.734 506.935 253.465 510.205 253.465 514.238C253.465 518.27 256.734 521.539 260.767 521.539C264.8 521.539 268.069 518.27 268.069 514.238C268.069 510.205 264.8 506.935 260.767 506.935Z" fill="black" fill-opacity="0.42"/>
<path fill-rule="evenodd" clip-rule="evenodd" d="M260.767 570.301C256.734 570.301 253.465 573.571 253.465 577.604C253.465 581.636 256.734 584.905 260.767 584.905C264.8 584.905 268.069 581.636 268.069 577.604C268.069 573.571 264.8 570.301 260.767 570.301Z" fill="black" fill-opacity="0.42"/>
<path fill-rule="evenodd" clip-rule="evenodd" d="M260.767 633.668C256.734 633.668 253.465 636.937 253.465 640.97C253.465 645.002 256.734 648.272 260.767 648.272C264.8 648.272 268.069 645.002 268.069 640.97C268.069 636.937 264.8 633.668 260.767 633.668Z" fill="black" fill-opacity="0.42"/>
<path fill-rule="evenodd" clip-rule="evenodd" d="M260.767 697.035C256.734 697.035 253.465 700.304 253.465 704.337C253.465 708.369 256.734 711.639 260.767 711.639C264.8 711.639 268.069 708.369 268.069 704.337C268.069 700.304 264.8 697.035 260.767 697.035Z" fill="black" fill-opacity="0.42"/>
<path fill-rule="evenodd" clip-rule="evenodd" d="M260.767 760.401C256.734 760.401 253.465 763.67 253.465 767.703C253.465 771.736 256.734 775.005 260.767 775.005C264.8 775.005 268.069 771.736 268.069 767.703C268.069 763.67 264.8 760.401 260.767 760.401Z" fill="black" fill-opacity="0.42"/>
<path fill-rule="evenodd" clip-rule="evenodd" d="M260.767 823.767C256.734 823.767 253.465 827.037 253.465 831.069C253.465 835.102 256.734 838.371 260.767 838.371C264.8 838.371 268.069 835.102 268.069 831.069C268.069 827.037 264.8 823.767 260.767 823.767Z" fill="black" fill-opacity="0.42"/>
<path fill-rule="evenodd" clip-rule="evenodd" d="M260.767 887.133C256.734 887.133 253.465 890.403 253.465 894.435C253.465 898.468 256.734 901.737 260.767 901.737C264.8 901.737 268.069 898.468 268.069 894.435C268.069 890.403 264.8 887.133 260.767 887.133Z" fill="black" fill-opacity="0.42"/>
<path fill-rule="evenodd" clip-rule="evenodd" d="M260.767 940.5C256.734 940.5 253.465 943.77 253.465 947.802C253.465 951.835 256.734 955.104 260.767 955.104C264.8 955.104 268.069 951.835 268.069 947.802C268.069 943.77 264.8 940.5 260.767 940.5Z" fill="black" fill-opacity="0.42"/>
<path fill-rule="evenodd" clip-rule="evenodd" d="M260.767 993.866C256.734 993.866 253.465 997.136 253.465 1001.17C253.465 1005.2 256.734 1008.47 260.767 1008.47C264.8 1008.47 268.069 1005.2 268.069 1001.17C268.069 997.136 264.8 993.866 260.767 993.866Z" fill="black" fill-opacity="0.42"/>
<path fill-rule="evenodd" clip-rule="evenodd" d="M324.134 0.00488281C320.101 0.00488281 316.832 3.27388 316.832 7.30688C316.832 11.3389 320.101 14.6089 324.134 14.6089C328.167 14.6089 331.436 11.3389 331.436 7.30688C331.436 3.27388 328.167 0.00488281 324.134 0.00488281Z" fill="black" fill-opacity="0.42"/>
<path fill-rule="evenodd" clip-rule="evenodd" d="M324.134 63.3711C320.101 63.3711 316.832 66.6401 316.832 70.6731C316.832 74.7051 320.101 77.9751 324.134 77.9751C328.167 77.9751 331.436 74.7051 331.436 70.6731C331.436 66.6401 328.167 63.3711 324.134 63.3711Z" fill="black" fill-opacity="0.42"/>
<path fill-rule="evenodd" clip-rule="evenodd" d="M324.134 126.737C320.101 126.737 316.832 130.006 316.832 134.039C316.832 138.072 320.101 141.341 324.134 141.341C328.167 141.341 331.436 138.072 331.436 134.039C331.436 130.006 328.167 126.737 324.134 126.737Z" fill="black" fill-opacity="0.42"/>
<path fill-rule="evenodd" clip-rule="evenodd" d="M324.134 190.104C320.101 190.104 316.832 193.374 316.832 197.406C316.832 201.439 320.101 204.708 324.134 204.708C328.167 204.708 331.436 201.439 331.436 197.406C331.436 193.374 328.167 190.104 324.134 190.104Z" fill="black" fill-opacity="0.42"/>
<path fill-rule="evenodd" clip-rule="evenodd" d="M324.134 253.47C320.101 253.47 316.832 256.739 316.832 260.772C316.832 264.804 320.101 268.074 324.134 268.074C328.167 268.074 331.436 264.804 331.436 260.772C331.436 256.739 328.167 253.47 324.134 253.47Z" fill="black" fill-opacity="0.42"/>
<path fill-rule="evenodd" clip-rule="evenodd" d="M324.134 316.836C320.101 316.836 316.832 320.106 316.832 324.138C316.832 328.171 320.101 331.44 324.134 331.44C328.167 331.44 331.436 328.171 331.436 324.138C331.436 320.106 328.167 316.836 324.134 316.836Z" fill="black" fill-opacity="0.42"/>
<path fill-rule="evenodd" clip-rule="evenodd" d="M324.134 380.203C320.101 380.203 316.832 383.473 316.832 387.505C316.832 391.538 320.101 394.807 324.134 394.807C328.167 394.807 331.436 391.538 331.436 387.505C331.436 383.473 328.167 380.203 324.134 380.203Z" fill="black" fill-opacity="0.42"/>
<path fill-rule="evenodd" clip-rule="evenodd" d="M324.134 443.569C320.101 443.569 316.832 446.839 316.832 450.871C316.832 454.904 320.101 458.173 324.134 458.173C328.167 458.173 331.436 454.904 331.436 450.871C331.436 446.839 328.167 443.569 324.134 443.569Z" fill="black" fill-opacity="0.42"/>
<path fill-rule="evenodd" clip-rule="evenodd" d="M324.134 506.935C320.101 506.935 316.832 510.205 316.832 514.238C316.832 518.27 320.101 521.539 324.134 521.539C328.167 521.539 331.436 518.27 331.436 514.238C331.436 510.205 328.167 506.935 324.134 506.935Z" fill="black" fill-opacity="0.42"/>
<path fill-rule="evenodd" clip-rule="evenodd" d="M324.134 570.301C320.101 570.301 316.832 573.571 316.832 577.604C316.832 581.636 320.101 584.905 324.134 584.905C328.167 584.905 331.436 581.636 331.436 577.604C331.436 573.571 328.167 570.301 324.134 570.301Z" fill="black" fill-opacity="0.42"/>
<path fill-rule="evenodd" clip-rule="evenodd" d="M324.134 633.668C320.101 633.668 316.832 636.937 316.832 640.97C316.832 645.002 320.101 648.272 324.134 648.272C328.167 648.272 331.436 645.002 331.436 640.97C331.436 636.937 328.167 633.668 324.134 633.668Z" fill="black" fill-opacity="0.42"/>
<path fill-rule="evenodd" clip-rule="evenodd" d="M324.134 697.035C320.101 697.035 316.832 700.304 316.832 704.337C316.832 708.369 320.101 711.639 324.134 711.639C328.167 711.639 331.436 708.369 331.436 704.337C331.436 700.304 328.167 697.035 324.134 697.035Z" fill="black" fill-opacity="0.42"/>
<path fill-rule="evenodd" clip-rule="evenodd" d="M324.134 760.401C320.101 760.401 316.832 763.67 316.832 767.703C316.832 771.736 320.101 775.005 324.134 775.005C328.167 775.005 331.436 771.736 331.436 767.703C331.436 763.67 328.167 760.401 324.134 760.401Z" fill="black" fill-opacity="0.42"/>
<path fill-rule="evenodd" clip-rule="evenodd" d="M324.134 823.767C320.101 823.767 316.832 827.037 316.832 831.069C316.832 835.102 320.101 838.371 324.134 838.371C328.167 838.371 331.436 835.102 331.436 831.069C331.436 827.037 328.167 823.767 324.134 823.767Z" fill="black" fill-opacity="0.42"/>
<path fill-rule="evenodd" clip-rule="evenodd" d="M324.134 887.133C320.101 887.133 316.832 890.403 316.832 894.435C316.832 898.468 320.101 901.737 324.134 901.737C328.167 901.737 331.436 898.468 331.436 894.435C331.436 890.403 328.167 887.133 324.134 887.133Z" fill="black" fill-opacity="0.42"/>
<path fill-rule="evenodd" clip-rule="evenodd" d="M324.134 940.5C320.101 940.5 316.832 943.77 316.832 947.802C316.832 951.835 320.101 955.104 324.134 955.104C328.167 955.104 331.436 951.835 331.436 947.802C331.436 943.77 328.167 940.5 324.134 940.5Z" fill="black" fill-opacity="0.42"/>
<path fill-rule="evenodd" clip-rule="evenodd" d="M324.134 993.866C320.101 993.866 316.832 997.136 316.832 1001.17C316.832 1005.2 320.101 1008.47 324.134 1008.47C328.167 1008.47 331.436 1005.2 331.436 1001.17C331.436 997.136 328.167 993.866 324.134 993.866Z" fill="black" fill-opacity="0.42"/>
<path fill-rule="evenodd" clip-rule="evenodd" d="M387.5 0.00488281C383.467 0.00488281 380.198 3.27388 380.198 7.30688C380.198 11.3389 383.467 14.6089 387.5 14.6089C391.533 14.6089 394.802 11.3389 394.802 7.30688C394.802 3.27388 391.533 0.00488281 387.5 0.00488281Z" fill="black" fill-opacity="0.42"/>
<path fill-rule="evenodd" clip-rule="evenodd" d="M387.5 63.3711C383.467 63.3711 380.198 66.6401 380.198 70.6731C380.198 74.7051 383.467 77.9751 387.5 77.9751C391.533 77.9751 394.802 74.7051 394.802 70.6731C394.802 66.6401 391.533 63.3711 387.5 63.3711Z" fill="black" fill-opacity="0.42"/>
<path fill-rule="evenodd" clip-rule="evenodd" d="M387.5 126.737C383.467 126.737 380.198 130.006 380.198 134.039C380.198 138.072 383.467 141.341 387.5 141.341C391.533 141.341 394.802 138.072 394.802 134.039C394.802 130.006 391.533 126.737 387.5 126.737Z" fill="black" fill-opacity="0.42"/>
<path fill-rule="evenodd" clip-rule="evenodd" d="M387.5 190.104C383.467 190.104 380.198 193.374 380.198 197.406C380.198 201.439 383.467 204.708 387.5 204.708C391.533 204.708 394.802 201.439 394.802 197.406C394.802 193.374 391.533 190.104 387.5 190.104Z" fill="black" fill-opacity="0.42"/>
<path fill-rule="evenodd" clip-rule="evenodd" d="M387.5 253.47C383.467 253.47 380.198 256.739 380.198 260.772C380.198 264.804 383.467 268.074 387.5 268.074C391.533 268.074 394.802 264.804 394.802 260.772C394.802 256.739 391.533 253.47 387.5 253.47Z" fill="black" fill-opacity="0.42"/>
<path fill-rule="evenodd" clip-rule="evenodd" d="M387.5 316.836C383.467 316.836 380.198 320.106 380.198 324.138C380.198 328.171 383.467 331.44 387.5 331.44C391.533 331.44 394.802 328.171 394.802 324.138C394.802 320.106 391.533 316.836 387.5 316.836Z" fill="black" fill-opacity="0.42"/>
<path fill-rule="evenodd" clip-rule="evenodd" d="M387.5 380.203C383.467 380.203 380.198 383.473 380.198 387.505C380.198 391.538 383.467 394.807 387.5 394.807C391.533 394.807 394.802 391.538 394.802 387.505C394.802 383.473 391.533 380.203 387.5 380.203Z" fill="black" fill-opacity="0.42"/>
<path fill-rule="evenodd" clip-rule="evenodd" d="M387.5 443.569C383.467 443.569 380.198 446.839 380.198 450.871C380.198 454.904 383.467 458.173 387.5 458.173C391.533 458.173 394.802 454.904 394.802 450.871C394.802 446.839 391.533 443.569 387.5 443.569Z" fill="black" fill-opacity="0.42"/>
<path fill-rule="evenodd" clip-rule="evenodd" d="M387.5 506.935C383.467 506.935 380.198 510.205 380.198 514.238C380.198 518.27 383.467 521.539 387.5 521.539C391.533 521.539 394.802 518.27 394.802 514.238C394.802 510.205 391.533 506.935 387.5 506.935Z" fill="black" fill-opacity="0.42"/>
<path fill-rule="evenodd" clip-rule="evenodd" d="M387.5 570.301C383.467 570.301 380.198 573.571 380.198 577.604C380.198 581.636 383.467 584.905 387.5 584.905C391.533 584.905 394.802 581.636 394.802 577.604C394.802 573.571 391.533 570.301 387.5 570.301Z" fill="black" fill-opacity="0.42"/>
<path fill-rule="evenodd" clip-rule="evenodd" d="M387.5 633.668C383.467 633.668 380.198 636.937 380.198 640.97C380.198 645.002 383.467 648.272 387.5 648.272C391.533 648.272 394.802 645.002 394.802 640.97C394.802 636.937 391.533 633.668 387.5 633.668Z" fill="black" fill-opacity="0.42"/>
<path fill-rule="evenodd" clip-rule="evenodd" d="M387.5 697.035C383.467 697.035 380.198 700.304 380.198 704.337C380.198 708.369 383.467 711.639 387.5 711.639C391.533 711.639 394.802 708.369 394.802 704.337C394.802 700.304 391.533 697.035 387.5 697.035Z" fill="black" fill-opacity="0.42"/>
<path fill-rule="evenodd" clip-rule="evenodd" d="M387.5 760.401C383.467 760.401 380.198 763.67 380.198 767.703C380.198 771.736 383.467 775.005 387.5 775.005C391.533 775.005 394.802 771.736 394.802 767.703C394.802 763.67 391.533 760.401 387.5 760.401Z" fill="black" fill-opacity="0.42"/>
<path fill-rule="evenodd" clip-rule="evenodd" d="M387.5 823.767C383.467 823.767 380.198 827.037 380.198 831.069C380.198 835.102 383.467 838.371 387.5 838.371C391.533 838.371 394.802 835.102 394.802 831.069C394.802 827.037 391.533 823.767 387.5 823.767Z" fill="black" fill-opacity="0.42"/>
<path fill-rule="evenodd" clip-rule="evenodd" d="M387.5 887.133C383.467 887.133 380.198 890.403 380.198 894.435C380.198 898.468 383.467 901.737 387.5 901.737C391.533 901.737 394.802 898.468 394.802 894.435C394.802 890.403 391.533 887.133 387.5 887.133Z" fill="black" fill-opacity="0.42"/>
<path fill-rule="evenodd" clip-rule="evenodd" d="M387.5 940.5C383.467 940.5 380.198 943.77 380.198 947.802C380.198 951.835 383.467 955.104 387.5 955.104C391.533 955.104 394.802 951.835 394.802 947.802C394.802 943.77 391.533 940.5 387.5 940.5Z" fill="black" fill-opacity="0.42"/>
<path fill-rule="evenodd" clip-rule="evenodd" d="M387.5 993.866C383.467 993.866 380.198 997.136 380.198 1001.17C380.198 1005.2 383.467 1008.47 387.5 1008.47C391.533 1008.47 394.802 1005.2 394.802 1001.17C394.802 997.136 391.533 993.866 387.5 993.866Z" fill="black" fill-opacity="0.42"/>
<path fill-rule="evenodd" clip-rule="evenodd" d="M450.866 0.00488281C446.834 0.00488281 443.564 3.27388 443.564 7.30688C443.564 11.3389 446.834 14.6089 450.866 14.6089C454.899 14.6089 458.168 11.3389 458.168 7.30688C458.168 3.27388 454.899 0.00488281 450.866 0.00488281Z" fill="black" fill-opacity="0.42"/>
<path fill-rule="evenodd" clip-rule="evenodd" d="M450.866 63.3711C446.834 63.3711 443.564 66.6401 443.564 70.6731C443.564 74.7051 446.834 77.9751 450.866 77.9751C454.899 77.9751 458.168 74.7051 458.168 70.6731C458.168 66.6401 454.899 63.3711 450.866 63.3711Z" fill="black" fill-opacity="0.42"/>
<path fill-rule="evenodd" clip-rule="evenodd" d="M450.866 126.737C446.834 126.737 443.564 130.006 443.564 134.039C443.564 138.072 446.834 141.341 450.866 141.341C454.899 141.341 458.168 138.072 458.168 134.039C458.168 130.006 454.899 126.737 450.866 126.737Z" fill="black" fill-opacity="0.42"/>
<path fill-rule="evenodd" clip-rule="evenodd" d="M450.866 190.104C446.834 190.104 443.564 193.374 443.564 197.406C443.564 201.439 446.834 204.708 450.866 204.708C454.899 204.708 458.168 201.439 458.168 197.406C458.168 193.374 454.899 190.104 450.866 190.104Z" fill="black" fill-opacity="0.42"/>
<path fill-rule="evenodd" clip-rule="evenodd" d="M450.866 253.47C446.834 253.47 443.564 256.739 443.564 260.772C443.564 264.804 446.834 268.074 450.866 268.074C454.899 268.074 458.168 264.804 458.168 260.772C458.168 256.739 454.899 253.47 450.866 253.47Z" fill="black" fill-opacity="0.42"/>
<path fill-rule="evenodd" clip-rule="evenodd" d="M450.866 316.836C446.834 316.836 443.564 320.106 443.564 324.138C443.564 328.171 446.834 331.44 450.866 331.44C454.899 331.44 458.168 328.171 458.168 324.138C458.168 320.106 454.899 316.836 450.866 316.836Z" fill="black" fill-opacity="0.42"/>
<path fill-rule="evenodd" clip-rule="evenodd" d="M450.866 380.203C446.834 380.203 443.564 383.473 443.564 387.505C443.564 391.538 446.834 394.807 450.866 394.807C454.899 394.807 458.168 391.538 458.168 387.505C458.168 383.473 454.899 380.203 450.866 380.203Z" fill="black" fill-opacity="0.42"/>
<path fill-rule="evenodd" clip-rule="evenodd" d="M450.866 443.569C446.834 443.569 443.564 446.839 443.564 450.871C443.564 454.904 446.834 458.173 450.866 458.173C454.899 458.173 458.168 454.904 458.168 450.871C458.168 446.839 454.899 443.569 450.866 443.569Z" fill="black" fill-opacity="0.42"/>
<path fill-rule="evenodd" clip-rule="evenodd" d="M450.866 506.935C446.834 506.935 443.564 510.205 443.564 514.238C443.564 518.27 446.834 521.539 450.866 521.539C454.899 521.539 458.168 518.27 458.168 514.238C458.168 510.205 454.899 506.935 450.866 506.935Z" fill="black" fill-opacity="0.42"/>
<path fill-rule="evenodd" clip-rule="evenodd" d="M450.866 570.301C446.834 570.301 443.564 573.571 443.564 577.604C443.564 581.636 446.834 584.905 450.866 584.905C454.899 584.905 458.168 581.636 458.168 577.604C458.168 573.571 454.899 570.301 450.866 570.301Z" fill="black" fill-opacity="0.42"/>
<path fill-rule="evenodd" clip-rule="evenodd" d="M450.866 633.668C446.834 633.668 443.564 636.937 443.564 640.97C443.564 645.002 446.834 648.272 450.866 648.272C454.899 648.272 458.168 645.002 458.168 640.97C458.168 636.937 454.899 633.668 450.866 633.668Z" fill="black" fill-opacity="0.42"/>
<path fill-rule="evenodd" clip-rule="evenodd" d="M450.866 697.035C446.834 697.035 443.564 700.304 443.564 704.337C443.564 708.369 446.834 711.639 450.866 711.639C454.899 711.639 458.168 708.369 458.168 704.337C458.168 700.304 454.899 697.035 450.866 697.035Z" fill="black" fill-opacity="0.42"/>
<path fill-rule="evenodd" clip-rule="evenodd" d="M450.866 760.401C446.834 760.401 443.564 763.67 443.564 767.703C443.564 771.736 446.834 775.005 450.866 775.005C454.899 775.005 458.168 771.736 458.168 767.703C458.168 763.67 454.899 760.401 450.866 760.401Z" fill="black" fill-opacity="0.42"/>
<path fill-rule="evenodd" clip-rule="evenodd" d="M450.866 823.767C446.834 823.767 443.564 827.037 443.564 831.069C443.564 835.102 446.834 838.371 450.866 838.371C454.899 838.371 458.168 835.102 458.168 831.069C458.168 827.037 454.899 823.767 450.866 823.767Z" fill="black" fill-opacity="0.42"/>
<path fill-rule="evenodd" clip-rule="evenodd" d="M450.866 887.133C446.834 887.133 443.564 890.403 443.564 894.435C443.564 898.468 446.834 901.737 450.866 901.737C454.899 901.737 458.168 898.468 458.168 894.435C458.168 890.403 454.899 887.133 450.866 887.133Z" fill="black" fill-opacity="0.42"/>
<path fill-rule="evenodd" clip-rule="evenodd" d="M450.866 940.5C446.834 940.5 443.564 943.77 443.564 947.802C443.564 951.835 446.834 955.104 450.866 955.104C454.899 955.104 458.168 951.835 458.168 947.802C458.168 943.77 454.899 940.5 450.866 940.5Z" fill="black" fill-opacity="0.42"/>
<path fill-rule="evenodd" clip-rule="evenodd" d="M450.866 993.866C446.834 993.866 443.564 997.136 443.564 1001.17C443.564 1005.2 446.834 1008.47 450.866 1008.47C454.899 1008.47 458.168 1005.2 458.168 1001.17C458.168 997.136 454.899 993.866 450.866 993.866Z" fill="black" fill-opacity="0.42"/>
<path fill-rule="evenodd" clip-rule="evenodd" d="M514.232 0.00488281C510.2 0.00488281 506.93 3.27388 506.93 7.30688C506.93 11.3389 510.2 14.6089 514.232 14.6089C518.265 14.6089 521.534 11.3389 521.534 7.30688C521.534 3.27388 518.265 0.00488281 514.232 0.00488281Z" fill="black" fill-opacity="0.42"/>
<path fill-rule="evenodd" clip-rule="evenodd" d="M514.232 63.3711C510.2 63.3711 506.93 66.6401 506.93 70.6731C506.93 74.7051 510.2 77.9751 514.232 77.9751C518.265 77.9751 521.534 74.7051 521.534 70.6731C521.534 66.6401 518.265 63.3711 514.232 63.3711Z" fill="black" fill-opacity="0.42"/>
<path fill-rule="evenodd" clip-rule="evenodd" d="M514.232 126.737C510.2 126.737 506.93 130.006 506.93 134.039C506.93 138.072 510.2 141.341 514.232 141.341C518.265 141.341 521.534 138.072 521.534 134.039C521.534 130.006 518.265 126.737 514.232 126.737Z" fill="black" fill-opacity="0.42"/>
<path fill-rule="evenodd" clip-rule="evenodd" d="M514.232 190.104C510.2 190.104 506.93 193.374 506.93 197.406C506.93 201.439 510.2 204.708 514.232 204.708C518.265 204.708 521.534 201.439 521.534 197.406C521.534 193.374 518.265 190.104 514.232 190.104Z" fill="black" fill-opacity="0.42"/>
<path fill-rule="evenodd" clip-rule="evenodd" d="M514.232 253.47C510.2 253.47 506.93 256.739 506.93 260.772C506.93 264.804 510.2 268.074 514.232 268.074C518.265 268.074 521.534 264.804 521.534 260.772C521.534 256.739 518.265 253.47 514.232 253.47Z" fill="black" fill-opacity="0.42"/>
<path fill-rule="evenodd" clip-rule="evenodd" d="M514.232 316.836C510.2 316.836 506.93 320.106 506.93 324.138C506.93 328.171 510.2 331.44 514.232 331.44C518.265 331.44 521.534 328.171 521.534 324.138C521.534 320.106 518.265 316.836 514.232 316.836Z" fill="black" fill-opacity="0.42"/>
<path fill-rule="evenodd" clip-rule="evenodd" d="M514.232 380.203C510.2 380.203 506.93 383.473 506.93 387.505C506.93 391.538 510.2 394.807 514.232 394.807C518.265 394.807 521.534 391.538 521.534 387.505C521.534 383.473 518.265 380.203 514.232 380.203Z" fill="black" fill-opacity="0.42"/>
<path fill-rule="evenodd" clip-rule="evenodd" d="M514.232 443.569C510.2 443.569 506.93 446.839 506.93 450.871C506.93 454.904 510.2 458.173 514.232 458.173C518.265 458.173 521.534 454.904 521.534 450.871C521.534 446.839 518.265 443.569 514.232 443.569Z" fill="black" fill-opacity="0.42"/>
<path fill-rule="evenodd" clip-rule="evenodd" d="M514.232 506.935C510.2 506.935 506.93 510.205 506.93 514.238C506.93 518.27 510.2 521.539 514.232 521.539C518.265 521.539 521.534 518.27 521.534 514.238C521.534 510.205 518.265 506.935 514.232 506.935Z" fill="black" fill-opacity="0.42"/>
<path fill-rule="evenodd" clip-rule="evenodd" d="M514.232 570.301C510.2 570.301 506.93 573.571 506.93 577.604C506.93 581.636 510.2 584.905 514.232 584.905C518.265 584.905 521.534 581.636 521.534 577.604C521.534 573.571 518.265 570.301 514.232 570.301Z" fill="black" fill-opacity="0.42"/>
<path fill-rule="evenodd" clip-rule="evenodd" d="M514.232 633.668C510.2 633.668 506.93 636.937 506.93 640.97C506.93 645.002 510.2 648.272 514.232 648.272C518.265 648.272 521.534 645.002 521.534 640.97C521.534 636.937 518.265 633.668 514.232 633.668Z" fill="black" fill-opacity="0.42"/>
<path fill-rule="evenodd" clip-rule="evenodd" d="M514.232 697.035C510.2 697.035 506.93 700.304 506.93 704.337C506.93 708.369 510.2 711.639 514.232 711.639C518.265 711.639 521.534 708.369 521.534 704.337C521.534 700.304 518.265 697.035 514.232 697.035Z" fill="black" fill-opacity="0.42"/>
<path fill-rule="evenodd" clip-rule="evenodd" d="M514.232 760.401C510.2 760.401 506.93 763.67 506.93 767.703C506.93 771.736 510.2 775.005 514.232 775.005C518.265 775.005 521.534 771.736 521.534 767.703C521.534 763.67 518.265 760.401 514.232 760.401Z" fill="black" fill-opacity="0.42"/>
<path fill-rule="evenodd" clip-rule="evenodd" d="M514.232 823.767C510.2 823.767 506.93 827.037 506.93 831.069C506.93 835.102 510.2 838.371 514.232 838.371C518.265 838.371 521.534 835.102 521.534 831.069C521.534 827.037 518.265 823.767 514.232 823.767Z" fill="black" fill-opacity="0.42"/>
<path fill-rule="evenodd" clip-rule="evenodd" d="M514.232 887.133C510.2 887.133 506.93 890.403 506.93 894.435C506.93 898.468 510.2 901.737 514.232 901.737C518.265 901.737 521.534 898.468 521.534 894.435C521.534 890.403 518.265 887.133 514.232 887.133Z" fill="black" fill-opacity="0.42"/>
<path fill-rule="evenodd" clip-rule="evenodd" d="M514.232 940.5C510.2 940.5 506.93 943.77 506.93 947.802C506.93 951.835 510.2 955.104 514.232 955.104C518.265 955.104 521.534 951.835 521.534 947.802C521.534 943.77 518.265 940.5 514.232 940.5Z" fill="black" fill-opacity="0.42"/>
<path fill-rule="evenodd" clip-rule="evenodd" d="M514.232 993.866C510.2 993.866 506.93 997.136 506.93 1001.17C506.93 1005.2 510.2 1008.47 514.232 1008.47C518.265 1008.47 521.534 1005.2 521.534 1001.17C521.534 997.136 518.265 993.866 514.232 993.866Z" fill="black" fill-opacity="0.42"/>
<path fill-rule="evenodd" clip-rule="evenodd" d="M577.598 0.00488281C573.566 0.00488281 570.296 3.27388 570.296 7.30688C570.296 11.3389 573.566 14.6089 577.598 14.6089C581.631 14.6089 584.901 11.3389 584.901 7.30688C584.901 3.27388 581.631 0.00488281 577.598 0.00488281Z" fill="black" fill-opacity="0.42"/>
<path fill-rule="evenodd" clip-rule="evenodd" d="M577.598 63.3711C573.566 63.3711 570.296 66.6401 570.296 70.6731C570.296 74.7051 573.566 77.9751 577.598 77.9751C581.631 77.9751 584.901 74.7051 584.901 70.6731C584.901 66.6401 581.631 63.3711 577.598 63.3711Z" fill="black" fill-opacity="0.42"/>
<path fill-rule="evenodd" clip-rule="evenodd" d="M577.598 126.737C573.566 126.737 570.296 130.006 570.296 134.039C570.296 138.072 573.566 141.341 577.598 141.341C581.631 141.341 584.901 138.072 584.901 134.039C584.901 130.006 581.631 126.737 577.598 126.737Z" fill="black" fill-opacity="0.42"/>
<path fill-rule="evenodd" clip-rule="evenodd" d="M577.598 190.104C573.566 190.104 570.296 193.374 570.296 197.406C570.296 201.439 573.566 204.708 577.598 204.708C581.631 204.708 584.901 201.439 584.901 197.406C584.901 193.374 581.631 190.104 577.598 190.104Z" fill="black" fill-opacity="0.42"/>
<path fill-rule="evenodd" clip-rule="evenodd" d="M577.598 253.47C573.566 253.47 570.296 256.739 570.296 260.772C570.296 264.804 573.566 268.074 577.598 268.074C581.631 268.074 584.901 264.804 584.901 260.772C584.901 256.739 581.631 253.47 577.598 253.47Z" fill="black" fill-opacity="0.42"/>
<path fill-rule="evenodd" clip-rule="evenodd" d="M577.598 316.836C573.566 316.836 570.296 320.106 570.296 324.138C570.296 328.171 573.566 331.44 577.598 331.44C581.631 331.44 584.901 328.171 584.901 324.138C584.901 320.106 581.631 316.836 577.598 316.836Z" fill="black" fill-opacity="0.42"/>
<path fill-rule="evenodd" clip-rule="evenodd" d="M577.598 380.203C573.566 380.203 570.296 383.473 570.296 387.505C570.296 391.538 573.566 394.807 577.598 394.807C581.631 394.807 584.901 391.538 584.901 387.505C584.901 383.473 581.631 380.203 577.598 380.203Z" fill="black" fill-opacity="0.42"/>
<path fill-rule="evenodd" clip-rule="evenodd" d="M577.598 443.569C573.566 443.569 570.296 446.839 570.296 450.871C570.296 454.904 573.566 458.173 577.598 458.173C581.631 458.173 584.901 454.904 584.901 450.871C584.901 446.839 581.631 443.569 577.598 443.569Z" fill="black" fill-opacity="0.42"/>
<path fill-rule="evenodd" clip-rule="evenodd" d="M577.598 506.935C573.566 506.935 570.296 510.205 570.296 514.238C570.296 518.27 573.566 521.539 577.598 521.539C581.631 521.539 584.901 518.27 584.901 514.238C584.901 510.205 581.631 506.935 577.598 506.935Z" fill="black" fill-opacity="0.42"/>
<path fill-rule="evenodd" clip-rule="evenodd" d="M577.598 570.301C573.566 570.301 570.296 573.571 570.296 577.604C570.296 581.636 573.566 584.905 577.598 584.905C581.631 584.905 584.901 581.636 584.901 577.604C584.901 573.571 581.631 570.301 577.598 570.301Z" fill="black" fill-opacity="0.42"/>
<path fill-rule="evenodd" clip-rule="evenodd" d="M577.598 633.668C573.566 633.668 570.296 636.937 570.296 640.97C570.296 645.002 573.566 648.272 577.598 648.272C581.631 648.272 584.901 645.002 584.901 640.97C584.901 636.937 581.631 633.668 577.598 633.668Z" fill="black" fill-opacity="0.42"/>
<path fill-rule="evenodd" clip-rule="evenodd" d="M577.598 697.035C573.566 697.035 570.296 700.304 570.296 704.337C570.296 708.369 573.566 711.639 577.598 711.639C581.631 711.639 584.901 708.369 584.901 704.337C584.901 700.304 581.631 697.035 577.598 697.035Z" fill="black" fill-opacity="0.42"/>
<path fill-rule="evenodd" clip-rule="evenodd" d="M577.598 760.401C573.566 760.401 570.296 763.67 570.296 767.703C570.296 771.736 573.566 775.005 577.598 775.005C581.631 775.005 584.901 771.736 584.901 767.703C584.901 763.67 581.631 760.401 577.598 760.401Z" fill="black" fill-opacity="0.42"/>
<path fill-rule="evenodd" clip-rule="evenodd" d="M577.598 823.767C573.566 823.767 570.296 827.037 570.296 831.069C570.296 835.102 573.566 838.371 577.598 838.371C581.631 838.371 584.901 835.102 584.901 831.069C584.901 827.037 581.631 823.767 577.598 823.767Z" fill="black" fill-opacity="0.42"/>
<path fill-rule="evenodd" clip-rule="evenodd" d="M577.598 887.133C573.566 887.133 570.296 890.403 570.296 894.435C570.296 898.468 573.566 901.737 577.598 901.737C581.631 901.737 584.901 898.468 584.901 894.435C584.901 890.403 581.631 887.133 577.598 887.133Z" fill="black" fill-opacity="0.42"/>
<path fill-rule="evenodd" clip-rule="evenodd" d="M577.598 940.5C573.566 940.5 570.296 943.77 570.296 947.802C570.296 951.835 573.566 955.104 577.598 955.104C581.631 955.104 584.901 951.835 584.901 947.802C584.901 943.77 581.631 940.5 577.598 940.5Z" fill="black" fill-opacity="0.42"/>
<path fill-rule="evenodd" clip-rule="evenodd" d="M577.598 993.866C573.566 993.866 570.296 997.136 570.296 1001.17C570.296 1005.2 573.566 1008.47 577.598 1008.47C581.631 1008.47 584.901 1005.2 584.901 1001.17C584.901 997.136 581.631 993.866 577.598 993.866Z" fill="black" fill-opacity="0.42"/>
<path fill-rule="evenodd" clip-rule="evenodd" d="M640.966 0.00488281C636.933 0.00488281 633.663 3.27388 633.663 7.30688C633.663 11.3389 636.933 14.6089 640.966 14.6089C644.998 14.6089 648.268 11.3389 648.268 7.30688C648.268 3.27388 644.998 0.00488281 640.966 0.00488281Z" fill="black" fill-opacity="0.42"/>
<path fill-rule="evenodd" clip-rule="evenodd" d="M640.966 63.3711C636.933 63.3711 633.663 66.6401 633.663 70.6731C633.663 74.7051 636.933 77.9751 640.966 77.9751C644.998 77.9751 648.268 74.7051 648.268 70.6731C648.268 66.6401 644.998 63.3711 640.966 63.3711Z" fill="black" fill-opacity="0.42"/>
<path fill-rule="evenodd" clip-rule="evenodd" d="M640.966 126.737C636.933 126.737 633.663 130.006 633.663 134.039C633.663 138.072 636.933 141.341 640.966 141.341C644.998 141.341 648.268 138.072 648.268 134.039C648.268 130.006 644.998 126.737 640.966 126.737Z" fill="black" fill-opacity="0.42"/>
<path fill-rule="evenodd" clip-rule="evenodd" d="M640.966 190.104C636.933 190.104 633.663 193.374 633.663 197.406C633.663 201.439 636.933 204.708 640.966 204.708C644.998 204.708 648.268 201.439 648.268 197.406C648.268 193.374 644.998 190.104 640.966 190.104Z" fill="black" fill-opacity="0.42"/>
<path fill-rule="evenodd" clip-rule="evenodd" d="M640.966 253.47C636.933 253.47 633.663 256.739 633.663 260.772C633.663 264.804 636.933 268.074 640.966 268.074C644.998 268.074 648.268 264.804 648.268 260.772C648.268 256.739 644.998 253.47 640.966 253.47Z" fill="black" fill-opacity="0.42"/>
<path fill-rule="evenodd" clip-rule="evenodd" d="M640.966 316.836C636.933 316.836 633.663 320.106 633.663 324.138C633.663 328.171 636.933 331.44 640.966 331.44C644.998 331.44 648.268 328.171 648.268 324.138C648.268 320.106 644.998 316.836 640.966 316.836Z" fill="black" fill-opacity="0.42"/>
<path fill-rule="evenodd" clip-rule="evenodd" d="M640.966 380.203C636.933 380.203 633.663 383.473 633.663 387.505C633.663 391.538 636.933 394.807 640.966 394.807C644.998 394.807 648.268 391.538 648.268 387.505C648.268 383.473 644.998 380.203 640.966 380.203Z" fill="black" fill-opacity="0.42"/>
<path fill-rule="evenodd" clip-rule="evenodd" d="M640.966 443.569C636.933 443.569 633.663 446.839 633.663 450.871C633.663 454.904 636.933 458.173 640.966 458.173C644.998 458.173 648.268 454.904 648.268 450.871C648.268 446.839 644.998 443.569 640.966 443.569Z" fill="black" fill-opacity="0.42"/>
<path fill-rule="evenodd" clip-rule="evenodd" d="M640.966 506.935C636.933 506.935 633.663 510.205 633.663 514.238C633.663 518.27 636.933 521.539 640.966 521.539C644.998 521.539 648.268 518.27 648.268 514.238C648.268 510.205 644.998 506.935 640.966 506.935Z" fill="black" fill-opacity="0.42"/>
<path fill-rule="evenodd" clip-rule="evenodd" d="M640.966 570.301C636.933 570.301 633.663 573.571 633.663 577.604C633.663 581.636 636.933 584.905 640.966 584.905C644.998 584.905 648.268 581.636 648.268 577.604C648.268 573.571 644.998 570.301 640.966 570.301Z" fill="black" fill-opacity="0.42"/>
<path fill-rule="evenodd" clip-rule="evenodd" d="M640.966 633.668C636.933 633.668 633.663 636.937 633.663 640.97C633.663 645.002 636.933 648.272 640.966 648.272C644.998 648.272 648.268 645.002 648.268 640.97C648.268 636.937 644.998 633.668 640.966 633.668Z" fill="black" fill-opacity="0.42"/>
<path fill-rule="evenodd" clip-rule="evenodd" d="M640.966 697.035C636.933 697.035 633.663 700.304 633.663 704.337C633.663 708.369 636.933 711.639 640.966 711.639C644.998 711.639 648.268 708.369 648.268 704.337C648.268 700.304 644.998 697.035 640.966 697.035Z" fill="black" fill-opacity="0.42"/>
<path fill-rule="evenodd" clip-rule="evenodd" d="M640.966 760.401C636.933 760.401 633.663 763.67 633.663 767.703C633.663 771.736 636.933 775.005 640.966 775.005C644.998 775.005 648.268 771.736 648.268 767.703C648.268 763.67 644.998 760.401 640.966 760.401Z" fill="black" fill-opacity="0.42"/>
<path fill-rule="evenodd" clip-rule="evenodd" d="M640.966 823.767C636.933 823.767 633.663 827.037 633.663 831.069C633.663 835.102 636.933 838.371 640.966 838.371C644.998 838.371 648.268 835.102 648.268 831.069C648.268 827.037 644.998 823.767 640.966 823.767Z" fill="black" fill-opacity="0.42"/>
<path fill-rule="evenodd" clip-rule="evenodd" d="M640.966 887.133C636.933 887.133 633.663 890.403 633.663 894.435C633.663 898.468 636.933 901.737 640.966 901.737C644.998 901.737 648.268 898.468 648.268 894.435C648.268 890.403 644.998 887.133 640.966 887.133Z" fill="black" fill-opacity="0.42"/>
<path fill-rule="evenodd" clip-rule="evenodd" d="M640.966 940.5C636.933 940.5 633.663 943.77 633.663 947.802C633.663 951.835 636.933 955.104 640.966 955.104C644.998 955.104 648.268 951.835 648.268 947.802C648.268 943.77 644.998 940.5 640.966 940.5Z" fill="black" fill-opacity="0.42"/>
<path fill-rule="evenodd" clip-rule="evenodd" d="M640.966 993.866C636.933 993.866 633.663 997.136 633.663 1001.17C633.663 1005.2 636.933 1008.47 640.966 1008.47C644.998 1008.47 648.268 1005.2 648.268 1001.17C648.268 997.136 644.998 993.866 640.966 993.866Z" fill="black" fill-opacity="0.42"/>
<path fill-rule="evenodd" clip-rule="evenodd" d="M704.332 0.00488281C700.299 0.00488281 697.029 3.27388 697.029 7.30688C697.029 11.3389 700.299 14.6089 704.332 14.6089C708.364 14.6089 711.634 11.3389 711.634 7.30688C711.634 3.27388 708.364 0.00488281 704.332 0.00488281Z" fill="black" fill-opacity="0.42"/>
<path fill-rule="evenodd" clip-rule="evenodd" d="M704.332 63.3711C700.299 63.3711 697.029 66.6401 697.029 70.6731C697.029 74.7051 700.299 77.9751 704.332 77.9751C708.364 77.9751 711.634 74.7051 711.634 70.6731C711.634 66.6401 708.364 63.3711 704.332 63.3711Z" fill="black" fill-opacity="0.42"/>
<path fill-rule="evenodd" clip-rule="evenodd" d="M704.332 126.737C700.299 126.737 697.029 130.006 697.029 134.039C697.029 138.072 700.299 141.341 704.332 141.341C708.364 141.341 711.634 138.072 711.634 134.039C711.634 130.006 708.364 126.737 704.332 126.737Z" fill="black" fill-opacity="0.42"/>
<path fill-rule="evenodd" clip-rule="evenodd" d="M704.332 190.104C700.299 190.104 697.029 193.374 697.029 197.406C697.029 201.439 700.299 204.708 704.332 204.708C708.364 204.708 711.634 201.439 711.634 197.406C711.634 193.374 708.364 190.104 704.332 190.104Z" fill="black" fill-opacity="0.42"/>
<path fill-rule="evenodd" clip-rule="evenodd" d="M704.332 253.47C700.299 253.47 697.029 256.739 697.029 260.772C697.029 264.804 700.299 268.074 704.332 268.074C708.364 268.074 711.634 264.804 711.634 260.772C711.634 256.739 708.364 253.47 704.332 253.47Z" fill="black" fill-opacity="0.42"/>
<path fill-rule="evenodd" clip-rule="evenodd" d="M704.332 316.836C700.299 316.836 697.029 320.106 697.029 324.138C697.029 328.171 700.299 331.44 704.332 331.44C708.364 331.44 711.634 328.171 711.634 324.138C711.634 320.106 708.364 316.836 704.332 316.836Z" fill="black" fill-opacity="0.42"/>
<path fill-rule="evenodd" clip-rule="evenodd" d="M704.332 380.203C700.299 380.203 697.029 383.473 697.029 387.505C697.029 391.538 700.299 394.807 704.332 394.807C708.364 394.807 711.634 391.538 711.634 387.505C711.634 383.473 708.364 380.203 704.332 380.203Z" fill="black" fill-opacity="0.42"/>
<path fill-rule="evenodd" clip-rule="evenodd" d="M704.332 443.569C700.299 443.569 697.029 446.839 697.029 450.871C697.029 454.904 700.299 458.173 704.332 458.173C708.364 458.173 711.634 454.904 711.634 450.871C711.634 446.839 708.364 443.569 704.332 443.569Z" fill="black" fill-opacity="0.42"/>
<path fill-rule="evenodd" clip-rule="evenodd" d="M704.332 506.935C700.299 506.935 697.029 510.205 697.029 514.238C697.029 518.27 700.299 521.539 704.332 521.539C708.364 521.539 711.634 518.27 711.634 514.238C711.634 510.205 708.364 506.935 704.332 506.935Z" fill="black" fill-opacity="0.42"/>
<path fill-rule="evenodd" clip-rule="evenodd" d="M704.332 570.301C700.299 570.301 697.029 573.571 697.029 577.604C697.029 581.636 700.299 584.905 704.332 584.905C708.364 584.905 711.634 581.636 711.634 577.604C711.634 573.571 708.364 570.301 704.332 570.301Z" fill="black" fill-opacity="0.42"/>
<path fill-rule="evenodd" clip-rule="evenodd" d="M704.332 633.668C700.299 633.668 697.029 636.937 697.029 640.97C697.029 645.002 700.299 648.272 704.332 648.272C708.364 648.272 711.634 645.002 711.634 640.97C711.634 636.937 708.364 633.668 704.332 633.668Z" fill="black" fill-opacity="0.42"/>
<path fill-rule="evenodd" clip-rule="evenodd" d="M704.332 697.035C700.299 697.035 697.029 700.304 697.029 704.337C697.029 708.369 700.299 711.639 704.332 711.639C708.364 711.639 711.634 708.369 711.634 704.337C711.634 700.304 708.364 697.035 704.332 697.035Z" fill="black" fill-opacity="0.42"/>
<path fill-rule="evenodd" clip-rule="evenodd" d="M704.332 760.401C700.299 760.401 697.029 763.67 697.029 767.703C697.029 771.736 700.299 775.005 704.332 775.005C708.364 775.005 711.634 771.736 711.634 767.703C711.634 763.67 708.364 760.401 704.332 760.401Z" fill="black" fill-opacity="0.42"/>
<path fill-rule="evenodd" clip-rule="evenodd" d="M704.332 823.767C700.299 823.767 697.029 827.037 697.029 831.069C697.029 835.102 700.299 838.371 704.332 838.371C708.364 838.371 711.634 835.102 711.634 831.069C711.634 827.037 708.364 823.767 704.332 823.767Z" fill="black" fill-opacity="0.42"/>
<path fill-rule="evenodd" clip-rule="evenodd" d="M704.332 887.133C700.299 887.133 697.029 890.403 697.029 894.435C697.029 898.468 700.299 901.737 704.332 901.737C708.364 901.737 711.634 898.468 711.634 894.435C711.634 890.403 708.364 887.133 704.332 887.133Z" fill="black" fill-opacity="0.42"/>
<path fill-rule="evenodd" clip-rule="evenodd" d="M704.332 940.5C700.299 940.5 697.029 943.77 697.029 947.802C697.029 951.835 700.299 955.104 704.332 955.104C708.364 955.104 711.634 951.835 711.634 947.802C711.634 943.77 708.364 940.5 704.332 940.5Z" fill="black" fill-opacity="0.42"/>
<path fill-rule="evenodd" clip-rule="evenodd" d="M704.332 993.866C700.299 993.866 697.029 997.136 697.029 1001.17C697.029 1005.2 700.299 1008.47 704.332 1008.47C708.364 1008.47 711.634 1005.2 711.634 1001.17C711.634 997.136 708.364 993.866 704.332 993.866Z" fill="black" fill-opacity="0.42"/>
<path fill-rule="evenodd" clip-rule="evenodd" d="M767.698 0.00488281C763.665 0.00488281 760.396 3.27388 760.396 7.30688C760.396 11.3389 763.665 14.6089 767.698 14.6089C771.73 14.6089 775 11.3389 775 7.30688C775 3.27388 771.73 0.00488281 767.698 0.00488281Z" fill="black" fill-opacity="0.42"/>
<path fill-rule="evenodd" clip-rule="evenodd" d="M767.698 63.3711C763.665 63.3711 760.396 66.6401 760.396 70.6731C760.396 74.7051 763.665 77.9751 767.698 77.9751C771.73 77.9751 775 74.7051 775 70.6731C775 66.6401 771.73 63.3711 767.698 63.3711Z" fill="black" fill-opacity="0.42"/>
<path fill-rule="evenodd" clip-rule="evenodd" d="M767.698 126.737C763.665 126.737 760.396 130.006 760.396 134.039C760.396 138.072 763.665 141.341 767.698 141.341C771.73 141.341 775 138.072 775 134.039C775 130.006 771.73 126.737 767.698 126.737Z" fill="black" fill-opacity="0.42"/>
<path fill-rule="evenodd" clip-rule="evenodd" d="M767.698 190.104C763.665 190.104 760.396 193.374 760.396 197.406C760.396 201.439 763.665 204.708 767.698 204.708C771.73 204.708 775 201.439 775 197.406C775 193.374 771.73 190.104 767.698 190.104Z" fill="black" fill-opacity="0.42"/>
<path fill-rule="evenodd" clip-rule="evenodd" d="M767.698 253.47C763.665 253.47 760.396 256.739 760.396 260.772C760.396 264.804 763.665 268.074 767.698 268.074C771.73 268.074 775 264.804 775 260.772C775 256.739 771.73 253.47 767.698 253.47Z" fill="black" fill-opacity="0.42"/>
<path fill-rule="evenodd" clip-rule="evenodd" d="M767.698 316.836C763.665 316.836 760.396 320.106 760.396 324.138C760.396 328.171 763.665 331.44 767.698 331.44C771.73 331.44 775 328.171 775 324.138C775 320.106 771.73 316.836 767.698 316.836Z" fill="black" fill-opacity="0.42"/>
<path fill-rule="evenodd" clip-rule="evenodd" d="M767.698 380.203C763.665 380.203 760.396 383.473 760.396 387.505C760.396 391.538 763.665 394.807 767.698 394.807C771.73 394.807 775 391.538 775 387.505C775 383.473 771.73 380.203 767.698 380.203Z" fill="black" fill-opacity="0.42"/>
<path fill-rule="evenodd" clip-rule="evenodd" d="M767.698 443.569C763.665 443.569 760.396 446.839 760.396 450.871C760.396 454.904 763.665 458.173 767.698 458.173C771.73 458.173 775 454.904 775 450.871C775 446.839 771.73 443.569 767.698 443.569Z" fill="black" fill-opacity="0.42"/>
<path fill-rule="evenodd" clip-rule="evenodd" d="M767.698 506.935C763.665 506.935 760.396 510.205 760.396 514.238C760.396 518.27 763.665 521.539 767.698 521.539C771.73 521.539 775 518.27 775 514.238C775 510.205 771.73 506.935 767.698 506.935Z" fill="black" fill-opacity="0.42"/>
<path fill-rule="evenodd" clip-rule="evenodd" d="M767.698 570.301C763.665 570.301 760.396 573.571 760.396 577.604C760.396 581.636 763.665 584.905 767.698 584.905C771.73 584.905 775 581.636 775 577.604C775 573.571 771.73 570.301 767.698 570.301Z" fill="black" fill-opacity="0.42"/>
<path fill-rule="evenodd" clip-rule="evenodd" d="M767.698 633.668C763.665 633.668 760.396 636.937 760.396 640.97C760.396 645.002 763.665 648.272 767.698 648.272C771.73 648.272 775 645.002 775 640.97C775 636.937 771.73 633.668 767.698 633.668Z" fill="black" fill-opacity="0.42"/>
<path fill-rule="evenodd" clip-rule="evenodd" d="M767.698 697.035C763.665 697.035 760.396 700.304 760.396 704.337C760.396 708.369 763.665 711.639 767.698 711.639C771.73 711.639 775 708.369 775 704.337C775 700.304 771.73 697.035 767.698 697.035Z" fill="black" fill-opacity="0.42"/>
<path fill-rule="evenodd" clip-rule="evenodd" d="M767.698 760.401C763.665 760.401 760.396 763.67 760.396 767.703C760.396 771.736 763.665 775.005 767.698 775.005C771.73 775.005 775 771.736 775 767.703C775 763.67 771.73 760.401 767.698 760.401Z" fill="black" fill-opacity="0.42"/>
<path fill-rule="evenodd" clip-rule="evenodd" d="M767.698 823.767C763.665 823.767 760.396 827.037 760.396 831.069C760.396 835.102 763.665 838.371 767.698 838.371C771.73 838.371 775 835.102 775 831.069C775 827.037 771.73 823.767 767.698 823.767Z" fill="black" fill-opacity="0.42"/>
<path fill-rule="evenodd" clip-rule="evenodd" d="M767.698 887.133C763.665 887.133 760.396 890.403 760.396 894.435C760.396 898.468 763.665 901.737 767.698 901.737C771.73 901.737 775 898.468 775 894.435C775 890.403 771.73 887.133 767.698 887.133Z" fill="black" fill-opacity="0.42"/>
<path fill-rule="evenodd" clip-rule="evenodd" d="M767.698 940.5C763.665 940.5 760.396 943.77 760.396 947.802C760.396 951.835 763.665 955.104 767.698 955.104C771.73 955.104 775 951.835 775 947.802C775 943.77 771.73 940.5 767.698 940.5Z" fill="black" fill-opacity="0.42"/>
<path fill-rule="evenodd" clip-rule="evenodd" d="M767.698 993.866C763.665 993.866 760.396 997.136 760.396 1001.17C760.396 1005.2 763.665 1008.47 767.698 1008.47C771.73 1008.47 775 1005.2 775 1001.17C775 997.136 771.73 993.866 767.698 993.866Z" fill="black" fill-opacity="0.42"/>
</g>
</svg>
