<svg width="34" height="14" viewBox="0 0 34 14" fill="none" xmlns="http://www.w3.org/2000/svg">
<path fill-rule="evenodd" clip-rule="evenodd" d="M10.2548 9.67614C12.068 7.86294 14.4787 6.85365 17.043 6.85365C19.6072 6.85365 22.0179 7.86825 23.8311 9.68145C24.9816 10.8319 25.8035 12.2144 26.251 13.7573H33.4573V4.07154C33.4573 1.79925 31.701 0.0429688 29.4287 0.0429688H4.74297C2.47068 0.0429688 0.542969 1.79925 0.542969 4.07154V13.7573H7.83485C8.28245 12.2144 9.10437 10.8266 10.2548 9.67614ZM30.7142 7.1747C30.7142 7.78062 30.2231 8.27185 29.6171 8.27185H26.3257C25.7197 8.27185 25.2285 7.7807 25.2285 7.1747V3.88328C25.2285 3.27736 25.7197 2.78613 26.3257 2.78613H29.6171C30.223 2.78613 30.7142 3.27728 30.7142 3.88328V7.1747Z" fill="#00838F"/>
</svg>
