<svg width="36" height="36" viewBox="0 0 36 36" fill="none" xmlns="http://www.w3.org/2000/svg">
<path fill-rule="evenodd" clip-rule="evenodd" d="M33.1211 0H3.0758C1.43475 0 0 1.18156 0 2.80386V32.9148C0 34.5465 1.43475 36 3.0758 36H33.1117C34.7621 36 35.9999 34.5371 35.9999 32.9148V2.80386C36.0093 1.18156 34.7621 0 33.1211 0ZM11.159 30.0081H6.00146V13.9727H11.159V30.0081ZM8.75843 11.5346H8.72092C7.07049 11.5346 6.00146 10.3062 6.00146 8.7683C6.00146 7.20227 7.09862 6.00195 8.78656 6.00195C10.4745 6.00195 11.506 7.19289 11.5435 8.7683C11.5435 10.3062 10.4745 11.5346 8.75843 11.5346ZM30.0077 30.0082H24.8502V21.2403C24.8502 19.1397 24.1 17.705 22.2339 17.705C20.8085 17.705 19.9645 18.6709 19.5894 19.6086C19.4488 19.9462 19.4112 20.4057 19.4112 20.8746V30.0082H14.2537V13.9728H19.4112V16.2046C20.1614 15.1356 21.3336 13.5977 24.0625 13.5977C27.4477 13.5977 30.0077 15.8295 30.0077 20.6401V30.0082Z" fill="#00838F"/>
</svg>
